#N canvas 30 27 1286 599 10;
#X declare -path EasyFlow;
#X obj 45 87 route setvar;
#X obj 143 87 route getvar;
#N canvas 18 50 822 595 SetVariables 0;
#X obj 85 32 inlet;
#X text 124 34 HotInlet;
#X obj 85 127 list;
#X obj 85 149 unpack s s;
#X symbolatom 172 176 13 0 0 0 - - -, f 13;
#X symbolatom 85 176 13 0 0 0 - - -, f 13;
#X obj 154 103 bng 15 250 50 0 empty empty empty 17 7 0 10 -262144
-1 -1;
#X obj 290 159 CopyList;
#X obj 290 134 list;
#X obj 290 244 list;
#X floatatom 51 268 5 0 0 0 - - -, f 5;
#X obj 51 289 sel -1;
#X msg 61 416 add2 \$1;
#X symbolatom 184 328 10 0 0 0 - - -, f 10;
#X obj 151 379 symbol;
#X obj 172 277 t s s;
#X obj 85 207 t b a a;
#X symbolatom 84 328 10 0 0 0 - - -, f 10;
#X obj 51 379 symbol;
#X obj 51 351 t b b;
#N canvas 0 50 1366 686 SubstituteNthElement 0;
#X obj 181 116 list;
#X obj 181 138 list split 1;
#X floatatom 278 111 5 0 0 0 - - -, f 5;
#X symbolatom 194 269 17 0 0 0 - - -, f 17;
#X obj 181 300 list append symbol;
#X obj 381 255 list split 1;
#X obj 181 343 list append symbol;
#X obj 363 337 list length;
#X floatatom 363 359 5 0 0 0 - - -, f 5;
#X obj 363 380 until 666;
#X obj 363 402 f;
#X obj 363 424 t f f;
#X obj 363 446 + 1;
#X floatatom 408 425 5 0 0 0 - - -, f 5;
#X floatatom 408 447 5 0 0 0 - - -, f 5;
#X msg 438 385 1;
#X msg 408 468 adddollar \$1;
#X msg 480 385 set add2;
#X msg 408 510 add2 \$1 \$2 \$3 \$4;
#X obj 250 163 print cannot substitute the n-th element (list is smaller)
;
#X obj 464 335 t b b b;
#X obj 181 78 inlet;
#X obj 408 559 outlet;
#X text 223 77 HotInlet;
#X obj 194 197 inlet;
#X obj 278 82 inlet;
#X text 319 80 Cold Inlet 2 - N-index;
#X text 236 197 Cold Inlet 1 - Value;
#X obj 181 365 trigger a anything bang;
#X obj 278 132 - 1;
#X msg 547 386 set;
#X connect 0 0 1 0;
#X connect 1 0 4 0;
#X connect 1 1 5 0;
#X connect 1 2 19 0;
#X connect 2 0 29 0;
#X connect 3 0 4 1;
#X connect 4 0 6 0;
#X connect 5 1 6 1;
#X connect 6 0 28 0;
#X connect 7 0 8 0;
#X connect 8 0 9 0;
#X connect 9 0 10 0;
#X connect 10 0 11 0;
#X connect 11 0 12 0;
#X connect 11 1 14 0;
#X connect 12 0 13 0;
#X connect 13 0 10 1;
#X connect 14 0 16 0;
#X connect 15 0 10 1;
#X connect 16 0 18 0;
#X connect 17 0 18 0;
#X connect 18 0 22 0;
#X connect 20 0 15 0;
#X connect 20 1 17 0;
#X connect 20 2 30 0;
#X connect 21 0 0 0;
#X connect 24 0 3 0;
#X connect 25 0 2 0;
#X connect 28 0 18 0;
#X connect 28 1 7 0;
#X connect 28 2 20 0;
#X connect 29 0 1 1;
#X connect 30 0 22 0;
#X restore 410 367 pd SubstituteNthElement;
#X obj 291 267 + 1;
#X floatatom 291 289 5 0 0 0 - - -, f 5;
#X symbolatom 317 353 10 0 0 0 - - -, f 10;
#X msg 410 251 var2 malcoue var1 macareda;
#X obj 291 310 t b b f;
#X obj 301 385 symbol;
#X obj 410 482 CopyList;
#X obj 410 462 list;
#X obj 410 343 list;
#X obj 410 389 t b a;
#X msg 410 419 var2 malcoue var1 macareda;
#X obj 223 86 s \$0-WhereToSendVariables;
#X obj 85 57 t a b b;
#X obj 410 530 s \$0-Variables;
#X obj 61 454 s \$0-Variables;
#N canvas 123 134 450 275 copy 0;
#X obj 56 46 inlet;
#X msg 56 68 var2 malcoue var1 macareda;
#X obj 56 90 outlet;
#X connect 0 0 1 0;
#X connect 1 0 2 0;
#X restore 290 191 pd copy;
#X obj 154 126 s \$0-Variables;
#X obj 290 112 r \$0-CopySet;
#X msg 223 64 CopySet;
#X obj 290 213 t a a;
#N canvas 595 138 706 526 delete-dummies 0;
#X obj 63 25 inlet;
#X obj 63 64 route dummyVar;
#X obj 63 106 route dummyValue;
#X msg 63 152 delete dummyVar;
#X obj 63 194 s SV_SymbolVariables;
#X connect 0 0 1 0;
#X connect 1 0 2 0;
#X connect 2 0 3 0;
#X connect 3 0 4 0;
#X restore 409 213 pd delete-dummies;
#N canvas 0 50 1366 686 Check4Variable 0;
#X obj 157 21 inlet;
#X text 199 19 Hot Inlet;
#X obj 620 398 inlet;
#X symbolatom 620 449 30 0 0 0 - - -, f 30;
#X obj 197 88 list length;
#X floatatom 197 110 5 0 0 0 - - -, f 5;
#X obj 237 231 until 666;
#X obj 237 303 f;
#X obj 237 325 t f f;
#X floatatom 264 349 5 0 0 0 - - -, f 5;
#X obj 157 43 list;
#X msg 405 457 adddollar \$1;
#X msg 405 489 symbol \$3;
#X msg 351 291 set symbol;
#X obj 405 535 select symbol;
#X symbolatom 405 511 10 0 0 0 - - -, f 10;
#X obj 405 557 bng 15 250 50 0 empty empty empty 17 7 0 10 -262144
-1 -1;
#X floatatom 405 598 5 0 0 0 - - -, f 5;
#X msg 308 232 1;
#X obj 237 262 t bang bang;
#X obj 708 41 copylist;
#X obj 788 69 bng 15 250 50 0 empty empty empty 17 7 0 10 -262144 -1
-1;
#X obj 284 466 list;
#X obj 264 376 trigger float bang float float;
#X obj 158 435 ==;
#X floatatom 107 399 5 0 0 0 - - -, f 5;
#X obj 158 457 sel 1;
#X obj 158 481 bng 15 250 50 0 empty empty empty 17 7 0 10 -262144
-1 -1;
#X floatatom 158 523 5 0 0 0 - - -, f 5;
#X obj 157 63 trigger anything anything anything bang;
#X msg 388 106 -1;
#X obj 158 553 outlet;
#X obj 346 514 bng 15 250 50 0 empty empty empty 17 7 0 10 -262144
-1 -1;
#X text 658 397 Cold Inlet 1 (Symbol);
#X obj 237 348 + 2;
#X obj 197 156 / 2;
#N canvas 356 181 450 300 copy 0;
#X obj 63 26 inlet;
#X msg 63 48 var2 malcoue var1 macareda;
#X obj 63 300 outlet;
#X connect 0 0 1 0;
#X connect 1 0 2 0;
#X restore 708 125 pd copy;
#X obj 197 131 t f f;
#X obj 226 156 - 1;
#X obj 197 181 trigger anything bang bang;
#X obj 777 43 cnv 10 10 17 empty empty empty 20 12 0 14 -51135 -66577
0;
#X obj 273 418 cnv 10 10 17 empty empty empty 20 12 0 14 -51135 -66577
0;
#X obj 273 444 cnv 10 10 17 empty empty empty 20 12 0 14 -88065 -66577
0;
#X obj 697 205 cnv 10 10 17 empty empty empty 20 12 0 14 -88065 -66577
0;
#X obj 375 244 cnv 10 10 17 empty empty empty 20 12 0 14 -147521 -66577
0;
#X obj 62 326 cnv 10 10 17 empty empty empty 20 12 0 14 -147521 -66577
0;
#X obj 96 376 cnv 10 10 17 empty empty empty 20 12 0 14 -99096 -66577
0;
#X obj 254 155 cnv 10 10 17 empty empty empty 20 12 0 14 -99096 -66577
0;
#X obj 394 576 cnv 10 10 17 empty empty empty 20 12 0 14 -91753 -66577
0;
#X obj 430 403 cnv 10 10 17 empty empty empty 20 12 0 14 -91753 -66577
0;
#X obj 394 619 cnv 10 10 17 empty empty empty 20 12 0 14 -728 -66577
0;
#X obj 147 501 cnv 10 10 17 empty empty empty 20 12 0 14 -728 -66577
0;
#X obj 377 128 cnv 10 10 17 empty empty empty 20 12 0 14 -728 -66577
0;
#X obj 788 43 r \$0-BangCopy1;
#X obj 708 205 s \$0-CopySend1;
#X obj 386 244 s \$0-CheckForLastIndex1;
#X obj 73 326 r \$0-CheckForLastIndex1;
#X obj 107 377 value \$0-ElCheckLength1;
#X obj 265 155 value \$0-ElCheckLength1;
#X obj 441 403 value \$0-ElCheckIndex1;
#X obj 405 576 value \$0-ElCheckIndex1;
#X obj 158 501 value \$0-FoundIndex1;
#X obj 405 619 value \$0-FoundIndex1;
#X obj 388 128 value \$0-FoundIndex1;
#X obj 284 418 s \$0-BangCopy1;
#X obj 284 444 r \$0-CopySend1;
#X connect 0 0 10 0;
#X connect 2 0 3 0;
#X connect 3 0 14 1;
#X connect 4 0 5 0;
#X connect 5 0 37 0;
#X connect 6 0 19 0;
#X connect 7 0 8 0;
#X connect 8 0 34 0;
#X connect 8 1 9 0;
#X connect 9 0 23 0;
#X connect 10 0 29 0;
#X connect 11 0 12 0;
#X connect 12 0 15 0;
#X connect 13 0 12 0;
#X connect 14 0 16 0;
#X connect 15 0 14 0;
#X connect 16 0 60 0;
#X connect 17 0 62 0;
#X connect 18 0 7 1;
#X connect 19 0 7 0;
#X connect 19 1 13 0;
#X connect 20 0 36 0;
#X connect 21 0 36 0;
#X connect 22 0 12 0;
#X connect 23 0 24 0;
#X connect 23 1 64 0;
#X connect 23 2 11 0;
#X connect 23 3 59 0;
#X connect 24 0 26 0;
#X connect 25 0 24 1;
#X connect 26 0 27 0;
#X connect 27 0 61 0;
#X connect 28 0 31 0;
#X connect 29 1 4 0;
#X connect 29 2 20 0;
#X connect 29 3 30 0;
#X connect 30 0 63 0;
#X connect 32 0 15 0;
#X connect 34 0 7 1;
#X connect 35 0 39 0;
#X connect 36 0 54 0;
#X connect 37 0 35 0;
#X connect 37 1 38 0;
#X connect 38 0 58 0;
#X connect 39 0 6 0;
#X connect 39 1 18 0;
#X connect 39 2 55 0;
#X connect 53 0 21 0;
#X connect 56 0 57 0;
#X connect 57 0 25 0;
#X connect 60 0 17 0;
#X connect 61 0 28 0;
#X connect 65 0 22 0;
#X restore 51 238 pd Check4Variable;
#X connect 0 0 33 0;
#X connect 2 0 3 0;
#X connect 3 0 5 0;
#X connect 3 1 4 0;
#X connect 4 0 15 0;
#X connect 5 0 16 0;
#X connect 6 0 37 0;
#X connect 7 0 36 0;
#X connect 7 0 24 0;
#X connect 8 0 7 0;
#X connect 9 0 42 0;
#X connect 10 0 11 0;
#X connect 11 0 19 0;
#X connect 11 1 21 0;
#X connect 12 0 35 0;
#X connect 13 0 14 1;
#X connect 14 0 12 0;
#X connect 15 0 23 0;
#X connect 15 1 13 0;
#X connect 16 0 36 0;
#X connect 16 1 42 1;
#X connect 16 2 17 0;
#X connect 17 0 18 1;
#X connect 18 0 12 0;
#X connect 19 0 14 0;
#X connect 19 1 18 0;
#X connect 20 0 30 0;
#X connect 21 0 22 0;
#X connect 22 0 25 0;
#X connect 23 0 26 1;
#X connect 24 0 29 0;
#X connect 25 0 24 0;
#X connect 25 1 26 0;
#X connect 25 2 20 2;
#X connect 26 0 20 1;
#X connect 27 0 34 0;
#X connect 28 0 27 0;
#X connect 29 0 20 0;
#X connect 30 0 31 0;
#X connect 30 1 31 0;
#X connect 31 0 28 0;
#X connect 33 0 2 0;
#X connect 33 1 6 0;
#X connect 33 2 39 0;
#X connect 36 0 40 0;
#X connect 38 0 8 0;
#X connect 39 0 32 0;
#X connect 40 0 41 0;
#X connect 40 1 9 0;
#X connect 42 0 10 0;
#X restore 45 112 pd SetVariables;
#N canvas 88 50 668 612 GetVariables 0;
#X obj 75 25 inlet;
#X text 113 25 HotInlet;
#X obj 75 77 list;
#X obj 75 99 unpack s s;
#X symbolatom 162 126 10 0 0 0 - - -, f 10;
#X symbolatom 75 126 13 0 0 0 - - -, f 13;
#X obj 154 73 bng 15 250 50 0 empty empty empty 17 7 0 10 -262144 -1
-1;
#X obj 320 69 CopyList;
#X obj 320 44 list;
#X msg 231 390 addsemi;
#X msg 179 562 \; aqui symbol macareda;
#X msg 286 390 set;
#X msg 179 390 add2 \$1;
#X obj 320 147 list;
#X floatatom 57 209 5 0 0 0 - - -, f 5;
#X obj 57 230 sel -1;
#X symbolatom 90 257 14 0 0 0 - - -, f 14;
#X obj 75 147 t bang a anything;
#X obj 57 280 symbol;
#X obj 322 247 + 1;
#X floatatom 322 269 5 0 0 0 - - -, f 5;
#X msg 483 351 set add2;
#X msg 363 391 add2 \$4;
#X msg 398 351 adddollar \$1;
#X msg 363 423 macareda;
#X msg 548 351 set;
#X obj 403 257 list;
#X obj 243 514 t b a;
#X obj 322 290 trigger bang bang float bang bang;
#X obj 363 455 list prepend symbol;
#X obj 363 477 list trim;
#X msg 363 515 add2 \$1;
#X msg 101 390 add2 symbol;
#X obj 162 355 t b a b b;
#X obj 57 303 list trim;
#X obj 476 86 s \$0-WhereToSendVariables;
#X obj 75 47 t a b b;
#N canvas 805 163 450 300 copy 0;
#X obj 56 23 inlet;
#X msg 56 45 var2 malcoue var1 macareda;
#X obj 56 67 outlet;
#X connect 0 0 1 0;
#X connect 1 0 2 0;
#X restore 320 98 pd copy;
#N canvas 613 154 450 300 copy 0;
#X obj 77 45 inlet;
#X msg 77 67 var2 malcoue var1 macareda;
#X obj 77 89 outlet;
#X connect 0 0 1 0;
#X connect 1 0 2 0;
#X restore 403 220 pd copy;
#X obj 154 96 s \$0-Variables;
#X obj 320 22 r \$0-CopyGet;
#X msg 476 64 CopyGet;
#X obj 57 326 print There is no such variable;
#N canvas 5 50 1366 686 Check4Variable 0;
#X obj 157 21 inlet;
#X text 199 19 Hot Inlet;
#X obj 620 398 inlet;
#X symbolatom 620 449 30 0 0 0 - - -, f 30;
#X obj 197 88 list length;
#X floatatom 197 110 5 0 0 0 - - -, f 5;
#X obj 237 231 until 666;
#X obj 237 303 f;
#X obj 237 325 t f f;
#X floatatom 264 349 5 0 0 0 - - -, f 5;
#X obj 157 43 list;
#X msg 405 457 adddollar \$1;
#X msg 405 489 symbol \$3;
#X msg 351 291 set symbol;
#X obj 405 535 select symbol;
#X symbolatom 405 511 10 0 0 0 - - -, f 10;
#X obj 405 557 bng 15 250 50 0 empty empty empty 17 7 0 10 -262144
-1 -1;
#X floatatom 405 598 5 0 0 0 - - -, f 5;
#X msg 308 232 1;
#X obj 237 262 t bang bang;
#X obj 708 41 copylist;
#X obj 788 69 bng 15 250 50 0 empty empty empty 17 7 0 10 -262144 -1
-1;
#X obj 284 466 list;
#X obj 264 376 trigger float bang float float;
#X obj 158 435 ==;
#X floatatom 107 399 5 0 0 0 - - -, f 5;
#X obj 158 457 sel 1;
#X obj 158 481 bng 15 250 50 0 empty empty empty 17 7 0 10 -262144
-1 -1;
#X floatatom 158 523 5 0 0 0 - - -, f 5;
#X obj 157 63 trigger anything anything anything bang;
#X msg 388 106 -1;
#X obj 158 553 outlet;
#X obj 346 514 bng 15 250 50 0 empty empty empty 17 7 0 10 -262144
-1 -1;
#X text 658 397 Cold Inlet 1 (Symbol);
#X obj 237 348 + 2;
#X obj 197 156 / 2;
#N canvas 356 181 450 300 copy 0;
#X obj 63 26 inlet;
#X msg 63 48 var2 malcoue var1 macareda;
#X obj 63 300 outlet;
#X connect 0 0 1 0;
#X connect 1 0 2 0;
#X restore 708 125 pd copy;
#X obj 197 131 t f f;
#X obj 226 156 - 1;
#X obj 197 181 trigger anything bang bang;
#X obj 777 43 cnv 10 10 17 empty empty empty 20 12 0 14 -51135 -66577
0;
#X obj 273 418 cnv 10 10 17 empty empty empty 20 12 0 14 -51135 -66577
0;
#X obj 273 444 cnv 10 10 17 empty empty empty 20 12 0 14 -88065 -66577
0;
#X obj 697 205 cnv 10 10 17 empty empty empty 20 12 0 14 -88065 -66577
0;
#X obj 375 244 cnv 10 10 17 empty empty empty 20 12 0 14 -147521 -66577
0;
#X obj 62 326 cnv 10 10 17 empty empty empty 20 12 0 14 -147521 -66577
0;
#X obj 96 376 cnv 10 10 17 empty empty empty 20 12 0 14 -99096 -66577
0;
#X obj 254 155 cnv 10 10 17 empty empty empty 20 12 0 14 -99096 -66577
0;
#X obj 394 576 cnv 10 10 17 empty empty empty 20 12 0 14 -91753 -66577
0;
#X obj 430 403 cnv 10 10 17 empty empty empty 20 12 0 14 -91753 -66577
0;
#X obj 394 619 cnv 10 10 17 empty empty empty 20 12 0 14 -728 -66577
0;
#X obj 147 501 cnv 10 10 17 empty empty empty 20 12 0 14 -728 -66577
0;
#X obj 377 128 cnv 10 10 17 empty empty empty 20 12 0 14 -728 -66577
0;
#X obj 788 43 r \$0-BangCopy2;
#X obj 708 205 s \$0-CopySend2;
#X obj 388 128 value \$0-FoundIndex2;
#X obj 265 155 value \$0-ElCheckLength2;
#X obj 386 244 s \$0-CheckForLastIndex2;
#X obj 73 326 r \$0-CheckForLastIndex2;
#X obj 107 377 value \$0-ElCheckLength2;
#X obj 441 403 value \$0-ElCheckIndex2;
#X obj 158 501 value \$0-FoundIndex2;
#X obj 405 576 value \$0-ElCheckIndex2;
#X obj 405 619 value \$0-FoundIndex2;
#X obj 284 418 s \$0-BangCopy2;
#X obj 284 444 r \$0-CopySend2;
#X connect 0 0 10 0;
#X connect 2 0 3 0;
#X connect 3 0 14 1;
#X connect 4 0 5 0;
#X connect 5 0 37 0;
#X connect 6 0 19 0;
#X connect 7 0 8 0;
#X connect 8 0 34 0;
#X connect 8 1 9 0;
#X connect 9 0 23 0;
#X connect 10 0 29 0;
#X connect 11 0 12 0;
#X connect 12 0 15 0;
#X connect 13 0 12 0;
#X connect 14 0 16 0;
#X connect 15 0 14 0;
#X connect 16 0 62 0;
#X connect 17 0 63 0;
#X connect 18 0 7 1;
#X connect 19 0 7 0;
#X connect 19 1 13 0;
#X connect 20 0 36 0;
#X connect 21 0 36 0;
#X connect 22 0 12 0;
#X connect 23 0 24 0;
#X connect 23 1 64 0;
#X connect 23 2 11 0;
#X connect 23 3 60 0;
#X connect 24 0 26 0;
#X connect 25 0 24 1;
#X connect 26 0 27 0;
#X connect 27 0 61 0;
#X connect 28 0 31 0;
#X connect 29 1 4 0;
#X connect 29 2 20 0;
#X connect 29 3 30 0;
#X connect 30 0 55 0;
#X connect 32 0 15 0;
#X connect 34 0 7 1;
#X connect 35 0 39 0;
#X connect 36 0 54 0;
#X connect 37 0 35 0;
#X connect 37 1 38 0;
#X connect 38 0 56 0;
#X connect 39 0 6 0;
#X connect 39 1 18 0;
#X connect 39 2 57 0;
#X connect 53 0 21 0;
#X connect 58 0 59 0;
#X connect 59 0 25 0;
#X connect 61 0 28 0;
#X connect 62 0 17 0;
#X connect 65 0 22 0;
#X restore 57 183 pd Check4Variable;
#X connect 0 0 36 0;
#X connect 2 0 3 0;
#X connect 3 0 5 0;
#X connect 3 1 4 0;
#X connect 4 0 33 0;
#X connect 5 0 17 0;
#X connect 6 0 39 0;
#X connect 7 0 37 0;
#X connect 7 0 38 0;
#X connect 8 0 7 0;
#X connect 9 0 10 0;
#X connect 11 0 10 0;
#X connect 12 0 10 0;
#X connect 13 0 43 0;
#X connect 14 0 15 0;
#X connect 15 0 18 0;
#X connect 15 1 19 0;
#X connect 16 0 18 1;
#X connect 17 0 37 0;
#X connect 17 1 43 1;
#X connect 17 2 16 0;
#X connect 18 0 34 0;
#X connect 19 0 20 0;
#X connect 20 0 28 0;
#X connect 21 0 22 0;
#X connect 22 0 24 0;
#X connect 23 0 22 0;
#X connect 24 0 29 0;
#X connect 25 0 24 0;
#X connect 26 0 22 0;
#X connect 27 0 10 0;
#X connect 27 1 10 0;
#X connect 28 0 24 0;
#X connect 28 1 38 0;
#X connect 28 2 23 0;
#X connect 28 3 21 0;
#X connect 28 4 25 0;
#X connect 29 0 30 0;
#X connect 30 0 31 0;
#X connect 31 0 27 0;
#X connect 32 0 10 0;
#X connect 33 0 32 0;
#X connect 33 1 12 0;
#X connect 33 2 9 0;
#X connect 33 3 11 0;
#X connect 34 0 42 0;
#X connect 36 0 2 0;
#X connect 36 1 6 0;
#X connect 36 2 41 0;
#X connect 37 0 13 0;
#X connect 38 0 26 0;
#X connect 40 0 8 0;
#X connect 41 0 35 0;
#X connect 43 0 14 0;
#X restore 143 112 pd GetVariables;
#N canvas 334 63 610 594 GS_Variables 0;
#X text 22 54 VARIABLES;
#X obj 85 526 send;
#X symbolatom 106 494 40 0 0 0 - - -, f 40;
#X obj 85 16 r \$0-Variables;
#X obj 142 241 list length;
#X floatatom 142 294 5 0 0 0 - - -, f 5;
#X obj 142 321 value \$0-Length;
#X obj 142 162 SearchNDestroy;
#X obj 243 141 loadbang;
#X msg 243 162 symbol dummyVar;
#X obj 142 212 SearchNDestroy;
#X obj 243 191 loadbang;
#X obj 142 117 list prepend Nothing;
#X msg 243 212 symbol dummyValue;
#X obj 142 265 - 1;
#X text 271 116 Otherwise if list was empty \, it would bang.;
#X text 168 264 Takes "Nothing" out.;
#X msg 85 53 JhonnySaid Ahoy BradSaid Hi LucySaid Ahoy DadSaid Hi;
#X obj 106 375 r \$0-WhereToSendVariables;
#X msg 148 451 set \$2-\$1;
#X obj 148 429 pack symbol \$0;
#X obj 106 397 trigger bang anything;
#X connect 2 0 1 1;
#X connect 3 0 17 0;
#X connect 4 0 14 0;
#X connect 5 0 6 0;
#X connect 7 0 10 0;
#X connect 8 0 9 0;
#X connect 9 0 7 1;
#X connect 10 0 4 0;
#X connect 11 0 13 0;
#X connect 12 0 7 0;
#X connect 13 0 10 1;
#X connect 14 0 5 0;
#X connect 17 0 12 0;
#X connect 17 0 1 0;
#X connect 18 0 21 0;
#X connect 19 0 2 0;
#X connect 20 0 19 0;
#X connect 21 0 2 0;
#X connect 21 1 20 0;
#X restore 23 0 pd GS_Variables;
#X obj 241 87 route clear;
#X obj 317 87 route getallvars;
#X obj 658 87 route printall;
#X obj 45 43 r SV_SymbolVariables;
#X obj 78 348 route search4varname;
#N canvas 502 192 256 131 clear 0;
#X obj 22 -50 inlet;
#X obj 22 -11 bng 15 250 50 0 empty empty empty 17 7 0 10 -262144 -1
-1;
#X msg 22 29 set dummyVar dummyValue;
#X text 42 -9 list length must be at least 1;
#X text 47 7 varNames Index's must be odd;
#X obj 22 51 s \$0-Variables;
#X connect 0 0 1 0;
#X connect 1 0 2 0;
#X connect 2 0 5 0;
#X restore 241 112 pd clear;
#N canvas 37 50 705 606 getallvars 0;
#X obj 123 11 inlet;
#X obj 327 125 s \$0-WhereToSendVariables;
#X obj 229 94 s \$0-Variables;
#X obj 66 366 CopyList;
#N canvas 404 217 450 300 copy 0;
#X obj 61 35 inlet;
#X msg 61 57 nameOne Homer nameTwo Bart nameThree Lisa;
#X obj 61 79 outlet;
#X connect 0 0 1 0;
#X connect 1 0 2 0;
#X restore 66 400 pd copy;
#X obj 66 319 r \$0-GetAllVars;
#X msg 327 93 GetAllVars;
#X obj 176 294 until 666;
#X obj 176 257 trigger float bang;
#X obj 176 321 f 3;
#X floatatom 176 343 5 0 0 0 - - -, f 5;
#X obj 206 322 + 2;
#X floatatom 176 236 5 0 0 0 - - -, f 5;
#X obj 176 192 / 2;
#X text 209 192 Will only get variable names and skip values;
#X obj 176 364 trigger bang float;
#X obj 176 123 value \$0-Length;
#X floatatom 176 155 5 0 0 0 - - -, f 5;
#X symbolatom 206 475 30 0 0 0 - - -, f 30;
#X obj 123 53 trigger bang bang bang bang anything;
#X obj 502 106 list;
#X obj 502 128 list prepend symbol;
#X obj 502 150 list trim;
#X symbolatom 502 172 25 0 0 0 - - -, f 25;
#X obj 481 556 send;
#X msg 281 298 1;
#X obj 206 453 GetNthElement;
#X obj 55 319 cnv 10 10 17 empty empty empty 20 12 0 14 -51135 -66577
0;
#X obj 395 93 cnv 10 10 17 empty empty empty 20 12 0 14 -51135 -66577
0;
#X connect 0 0 19 0;
#X connect 3 0 4 0;
#X connect 4 0 26 0;
#X connect 5 0 3 0;
#X connect 6 0 1 0;
#X connect 7 0 9 0;
#X connect 8 0 7 0;
#X connect 8 1 25 0;
#X connect 9 0 10 0;
#X connect 9 0 11 0;
#X connect 10 0 15 0;
#X connect 11 0 9 1;
#X connect 12 0 8 0;
#X connect 13 0 12 0;
#X connect 15 0 4 0;
#X connect 15 1 26 1;
#X connect 16 0 17 0;
#X connect 17 0 13 0;
#X connect 18 0 24 0;
#X connect 19 1 16 0;
#X connect 19 2 2 0;
#X connect 19 3 6 0;
#X connect 19 4 20 0;
#X connect 20 0 21 0;
#X connect 21 0 22 0;
#X connect 22 0 23 0;
#X connect 23 0 24 1;
#X connect 25 0 9 1;
#X connect 26 0 18 0;
#X restore 317 112 pd getallvars;
#N canvas 135 50 771 598 printall 0;
#X obj 93 57 inlet;
#X obj 297 155 s \$0-WhereToSendVariables;
#X obj 199 134 s \$0-Variables;
#X obj 36 426 CopyList;
#N canvas 404 217 450 300 copy 0;
#X obj 61 35 inlet;
#X msg 61 57 dummyVar dummyValue;
#X obj 61 79 outlet;
#X connect 0 0 1 0;
#X connect 1 0 2 0;
#X restore 36 460 pd copy;
#X obj 146 334 until 666;
#X obj 146 297 trigger float bang;
#X obj 146 361 f 3;
#X floatatom 146 383 5 0 0 0 - - -, f 5;
#X obj 176 362 + 2;
#X floatatom 146 276 5 0 0 0 - - -, f 5;
#X obj 146 232 / 2;
#X text 179 232 Will only get variable names and skip values;
#X obj 146 404 trigger bang float;
#X obj 146 163 value \$0-Length;
#X floatatom 146 195 5 0 0 0 - - -, f 5;
#X obj 212 496 GetPair;
#X msg 297 133 PrintAll;
#X obj 36 384 r \$0-PrintAll;
#X obj 212 522 list trim;
#X obj 212 549 print;
#X obj 93 93 trigger bang bang bang bang bang;
#X obj 375 100 print;
#X obj 166 55 print;
#X msg 375 62 ============ Symbol Variables printall method ============
;
#X msg 166 30 ========== This is the end of the printall method ==========
;
#X msg 251 337 1;
#X connect 0 0 21 0;
#X connect 3 0 4 0;
#X connect 4 0 16 0;
#X connect 5 0 7 0;
#X connect 6 0 5 0;
#X connect 6 1 26 0;
#X connect 7 0 8 0;
#X connect 7 0 9 0;
#X connect 8 0 13 0;
#X connect 9 0 7 1;
#X connect 10 0 6 0;
#X connect 11 0 10 0;
#X connect 13 0 4 0;
#X connect 13 1 16 1;
#X connect 14 0 15 0;
#X connect 15 0 11 0;
#X connect 16 0 19 0;
#X connect 17 0 1 0;
#X connect 18 0 3 0;
#X connect 19 0 20 0;
#X connect 21 0 25 0;
#X connect 21 1 14 0;
#X connect 21 2 2 0;
#X connect 21 3 17 0;
#X connect 21 4 24 0;
#X connect 24 0 22 0;
#X connect 25 0 23 0;
#X connect 26 0 7 1;
#X restore 658 112 pd printall;
#X obj 544 87 route getallpairs;
#N canvas 62 50 799 639 getallpairs 0;
#X obj 196 17 inlet;
#X obj 367 115 s \$0-WhereToSendVariables;
#X obj 258 93 s \$0-Variables;
#X obj 86 386 CopyList;
#N canvas 404 217 450 300 copy 0;
#X obj 61 35 inlet;
#X msg 61 57 var1 Onyx var2 Weasel var3 Van_Gogh var4 Gustav_Mahler
stravinsky Fire_Bird debussy faun favorite_food castanha-do-pará Favorite_Food
Kiwi;
#X obj 61 79 outlet;
#X connect 0 0 1 0;
#X connect 1 0 2 0;
#X restore 86 420 pd copy;
#X obj 196 294 until 666;
#X obj 196 257 trigger float bang;
#X text 328 297 Skips dummyVar;
#X obj 196 321 f 3;
#X floatatom 196 343 5 0 0 0 - - -, f 5;
#X obj 226 322 + 2;
#X floatatom 196 236 5 0 0 0 - - -, f 5;
#X obj 196 192 / 2;
#X text 229 192 Will only get variable names and skip values;
#X obj 196 364 trigger bang float;
#X obj 196 123 value \$0-Length;
#X floatatom 196 155 5 0 0 0 - - -, f 5;
#X obj 262 456 GetPair;
#X msg 367 93 GetAllPairs;
#X obj 86 344 r \$0-GetAllPairs;
#X obj 262 478 unpack symbol symbol;
#X symbolatom 262 570 20 0 0 0 - - -, f 20;
#X symbolatom 379 503 20 0 0 0 - - -, f 20;
#X obj 545 52 unpack symbol symbol;
#X obj 196 53 trigger bang bang bang anything;
#X symbolatom 672 79 10 0 0 0 - - -, f 10;
#X symbolatom 545 78 10 0 0 0 - - -, f 10;
#X obj 672 115 s \$0-GetAllPairs2;
#X obj 379 534 send;
#X obj 415 533 r \$0-GetAllPairs2;
#X obj 262 594 send;
#X obj 298 593 r \$0-GetAllPairs1;
#X obj 545 115 s \$0-GetAllPairs1;
#X text 503 502 Value will be sent first;
#X msg 301 297 1;
#X obj 442 93 cnv 10 10 17 empty empty empty 20 12 0 14 -51135 -66577
0;
#X obj 76 344 cnv 10 10 17 empty empty empty 20 12 0 14 -51135 -66577
0;
#X obj 534 115 cnv 10 10 17 empty empty empty 20 12 0 14 -6441 -66577
0;
#X obj 662 115 cnv 10 10 17 empty empty empty 20 12 0 14 -88065 -66577
0;
#X obj 405 593 cnv 10 10 17 empty empty empty 20 12 0 14 -6441 -66577
0;
#X obj 522 533 cnv 10 10 17 empty empty empty 20 12 0 14 -88065 -66577
0;
#X connect 0 0 24 0;
#X connect 3 0 4 0;
#X connect 4 0 17 0;
#X connect 5 0 8 0;
#X connect 6 0 5 0;
#X connect 6 1 34 0;
#X connect 8 0 9 0;
#X connect 8 0 10 0;
#X connect 9 0 14 0;
#X connect 10 0 8 1;
#X connect 11 0 6 0;
#X connect 12 0 11 0;
#X connect 14 0 4 0;
#X connect 14 1 17 1;
#X connect 15 0 16 0;
#X connect 16 0 12 0;
#X connect 17 0 20 0;
#X connect 18 0 1 0;
#X connect 19 0 3 0;
#X connect 20 0 21 0;
#X connect 20 1 22 0;
#X connect 21 0 30 0;
#X connect 22 0 28 0;
#X connect 23 0 26 0;
#X connect 23 1 25 0;
#X connect 24 0 15 0;
#X connect 24 1 2 0;
#X connect 24 2 18 0;
#X connect 24 3 23 0;
#X connect 25 0 27 0;
#X connect 26 0 32 0;
#X connect 29 0 28 1;
#X connect 31 0 30 1;
#X connect 34 0 8 1;
#X restore 544 113 pd getallpairs;
#X obj 762 87 route append;
#N canvas 255 72 714 515 append 0;
#X obj 30 24 inlet;
#X symbolatom 30 108 10 0 0 0 - - -, f 10;
#X symbolatom 147 109 15 0 0 0 - - -, f 15;
#X symbolatom 42 229 10 0 0 0 - - -, f 10;
#X obj 42 207 r \$0-Append;
#X obj 111 116 f \$0;
#X msg 30 419 \; SV_SymbolVariables getvar \$1 \$2-Append;
#X floatatom 111 138 5 0 0 0 - - -, f 5;
#X obj 30 86 unpack symbol symbol;
#X obj 30 56 trigger anything bang;
#X obj 30 169 pack symbol float;
#X obj 42 256 pack symbol symbol;
#X msg 129 333 symbol HumansMustBeVeryExpensiveJustLeftTheBuildingGonnaExplodeGonnaExplode
;
#X obj 30 129 t s s;
#X symbolatom 302 200 10 0 0 0 - - -, f 10;
#X obj 197 225 pack symbol symbol;
#X obj 42 278 t bang anything;
#X msg 197 269 \; SV_SymbolVariables setvar \$2 \$1;
#X msg 129 308 set symbol \$1\$2;
#X connect 0 0 9 0;
#X connect 1 0 13 0;
#X connect 2 0 11 1;
#X connect 3 0 11 0;
#X connect 4 0 3 0;
#X connect 5 0 7 0;
#X connect 7 0 10 1;
#X connect 8 0 1 0;
#X connect 8 1 2 0;
#X connect 9 0 8 0;
#X connect 9 1 5 0;
#X connect 10 0 6 0;
#X connect 11 0 16 0;
#X connect 12 0 15 0;
#X connect 13 0 10 0;
#X connect 13 1 14 0;
#X connect 14 0 15 1;
#X connect 15 0 17 0;
#X connect 16 0 12 0;
#X connect 16 1 18 0;
#X connect 18 0 12 0;
#X restore 762 113 pd append;
#X obj 847 87 route prepend;
#N canvas 162 122 469 440 prepend 0;
#X obj 40 24 inlet;
#X symbolatom 40 98 10 0 0 0 - - -, f 10;
#X symbolatom 157 99 15 0 0 0 - - -, f 15;
#X symbolatom 52 219 10 0 0 0 - - -, f 10;
#X obj 121 106 f \$0;
#X floatatom 121 128 5 0 0 0 - - -, f 5;
#X obj 40 76 unpack symbol symbol;
#X obj 40 46 trigger anything bang;
#X obj 40 159 pack symbol float;
#X obj 52 246 pack symbol symbol;
#X msg 139 323 symbol DestroyAllHumans;
#X obj 40 119 t s s;
#X symbolatom 312 190 10 0 0 0 - - -, f 10;
#X obj 207 215 pack symbol symbol;
#X obj 52 268 t bang anything;
#X msg 139 298 set symbol \$2\$1;
#X msg 207 259 \; SV_SymbolVariables setvar \$2 \$1;
#X obj 52 197 r \$0-Prepend;
#X msg 40 369 \; SV_SymbolVariables getvar \$1 \$2-Prepend;
#X connect 0 0 7 0;
#X connect 1 0 11 0;
#X connect 2 0 9 1;
#X connect 3 0 9 0;
#X connect 4 0 5 0;
#X connect 5 0 8 1;
#X connect 6 0 1 0;
#X connect 6 1 2 0;
#X connect 7 0 6 0;
#X connect 7 1 4 0;
#X connect 8 0 18 0;
#X connect 9 0 14 0;
#X connect 10 0 13 0;
#X connect 11 0 8 0;
#X connect 11 1 12 0;
#X connect 12 0 13 1;
#X connect 13 0 16 0;
#X connect 14 0 10 0;
#X connect 14 1 15 0;
#X connect 15 0 10 0;
#X connect 17 0 3 0;
#X restore 847 113 pd prepend;
#X obj 947 87 route appendall;
#N canvas 193 50 723 471 appendall 0;
#X obj 86 44 inlet;
#X obj 86 90 f \$0;
#X floatatom 86 112 5 0 0 0 - - -, f 5;
#X obj 456 88 list;
#X obj 456 110 list prepend symbol;
#X obj 456 132 list trim;
#X msg 86 145 getallpairs \$1-AppendAllWireless1 \$1-AppendAllWireless2
;
#X obj 218 227 r \$0-AppendAllWireless1;
#X symbolatom 218 249 23 0 0 0 - - -, f 23;
#X symbolatom 378 249 23 0 0 0 - - -, f 23;
#X obj 378 227 r \$0-AppendAllWireless2;
#X obj 86 172 s SV_SymbolVariables;
#X symbolatom 456 161 18 0 0 0 - - -, f 18;
#X obj 86 66 trigger bang anything;
#X obj 378 272 pack symbol symbol;
#X obj 378 294 trigger bang anything;
#X obj 218 347 pack symbol symbol;
#X msg 501 317 set symbol \$1\$2;
#X msg 218 379 \; SV_SymbolVariables setvar \$1 \$2;
#X msg 378 348 symbol NeverTrustLisaMustBeDestroyedAtAllCosts;
#X obj 207 227 cnv 10 10 17 empty empty empty 20 12 0 14 -51135 -66577
0;
#X obj 367 227 cnv 10 10 17 empty empty empty 20 12 0 14 -91753 -66577
0;
#X obj 162 127 cnv 10 10 17 empty empty empty 20 12 0 14 -51135 -66577
0;
#X obj 296 127 cnv 10 10 17 empty empty empty 20 12 0 14 -91753 -66577
0;
#X connect 0 0 13 0;
#X connect 1 0 2 0;
#X connect 2 0 6 0;
#X connect 3 0 4 0;
#X connect 4 0 5 0;
#X connect 5 0 12 0;
#X connect 6 0 11 0;
#X connect 7 0 8 0;
#X connect 8 0 16 0;
#X connect 9 0 14 0;
#X connect 10 0 9 0;
#X connect 12 0 14 1;
#X connect 13 0 1 0;
#X connect 13 1 3 0;
#X connect 14 0 15 0;
#X connect 15 0 19 0;
#X connect 15 1 17 0;
#X connect 16 0 18 0;
#X connect 17 0 19 0;
#X connect 19 0 16 1;
#X restore 947 114 pd appendall;
#N canvas 350 50 670 539 Prependall 0;
#X obj 86 44 inlet;
#X obj 86 90 f \$0;
#X floatatom 86 112 5 0 0 0 - - -, f 5;
#X obj 456 88 list;
#X obj 456 110 list prepend symbol;
#X obj 456 132 list trim;
#X symbolatom 218 249 23 0 0 0 - - -, f 23;
#X symbolatom 388 249 23 0 0 0 - - -, f 23;
#X obj 86 172 s SV_SymbolVariables;
#X symbolatom 456 161 18 0 0 0 - - -, f 18;
#X obj 86 66 trigger bang anything;
#X obj 388 272 pack symbol symbol;
#X msg 388 348 symbol NeverTrustLisa;
#X obj 388 294 trigger bang anything;
#X obj 218 347 pack symbol symbol;
#X msg 218 379 \; SV_SymbolVariables setvar \$1 \$2;
#X msg 511 317 set symbol \$2\$1;
#X obj 388 227 r \$0-PrependAllWireless2;
#X obj 218 227 r \$0-PrependAllWireless1;
#X msg 86 145 getallpairs \$1-PrependAllWireless1 \$1-PrependAllWireless2
;
#X obj 207 227 cnv 10 10 17 empty empty empty 20 12 0 14 -51135 -66577
0;
#X obj 377 227 cnv 10 10 17 empty empty empty 20 12 0 14 -91753 -66577
0;
#X obj 162 127 cnv 10 10 17 empty empty empty 20 12 0 14 -51135 -66577
0;
#X obj 296 127 cnv 10 10 17 empty empty empty 20 12 0 14 -91753 -66577
0;
#X connect 0 0 10 0;
#X connect 1 0 2 0;
#X connect 2 0 19 0;
#X connect 3 0 4 0;
#X connect 4 0 5 0;
#X connect 5 0 9 0;
#X connect 6 0 14 0;
#X connect 7 0 11 0;
#X connect 9 0 11 1;
#X connect 10 0 1 0;
#X connect 10 1 3 0;
#X connect 11 0 13 0;
#X connect 12 0 14 1;
#X connect 13 0 12 0;
#X connect 13 1 16 0;
#X connect 14 0 15 0;
#X connect 16 0 12 0;
#X connect 17 0 7 0;
#X connect 18 0 6 0;
#X connect 19 0 8 0;
#X restore 1057 114 pd Prependall;
#X obj 1057 87 route prependall;
#X obj 298 175 route frequency;
#X obj 1170 87 s \$0-continue;
#X obj 44 153 r \$0-continue;
#X obj 44 175 route concatenate;
#N canvas 240 50 946 576 frequency 0;
#X obj 108 31 inlet;
#X obj 184 141 f \$0;
#X msg 184 167 getallvalues \$1-Frequency;
#X obj 232 217 r \$0-Frequency;
#X obj 232 277 select symbol;
#X obj 184 189 s SV_SymbolVariables;
#X symbolatom 232 249 10 0 0 0 - - -, f 10;
#X obj 232 327 f 0;
#X obj 262 328 + 1;
#X floatatom 232 353 5 0 0 0 - - -, f 5;
#X msg 384 271 0;
#X obj 108 54 trigger bang bang anything;
#X obj 357 76 unpack symbol symbol;
#X symbolatom 474 102 10 0 0 0 - - -, f 10;
#X symbolatom 357 103 15 0 0 0 - - -, f 15;
#X floatatom 423 178 5 0 0 0 - - -, f 5;
#X obj 453 209 send;
#X obj 108 248 t b b;
#X obj 357 250 t a b;
#X obj 217 377 f;
#X obj 207 408 cnv 10 10 17 empty empty empty 20 12 0 14 -99096 -66577
0;
#X obj 217 408 s \$0-frequencyOutput;
#X obj 413 154 cnv 10 10 17 empty empty empty 20 12 0 14 -99096 -66577
0;
#X obj 423 154 r \$0-frequencyOutput;
#X obj 267 149 cnv 10 10 17 empty empty empty 20 12 0 14 -88065 -66577
0;
#X obj 221 217 cnv 10 10 17 empty empty empty 20 12 0 14 -88065 -66577
0;
#X connect 0 0 11 0;
#X connect 1 0 2 0;
#X connect 2 0 5 0;
#X connect 3 0 6 0;
#X connect 4 0 7 0;
#X connect 6 0 4 0;
#X connect 7 0 8 0;
#X connect 7 0 9 0;
#X connect 8 0 7 1;
#X connect 9 0 19 1;
#X connect 10 0 7 1;
#X connect 11 0 17 0;
#X connect 11 1 1 0;
#X connect 11 2 12 0;
#X connect 12 0 14 0;
#X connect 12 1 13 0;
#X connect 13 0 16 1;
#X connect 14 0 18 0;
#X connect 15 0 16 0;
#X connect 17 0 19 0;
#X connect 17 1 7 0;
#X connect 18 0 4 1;
#X connect 18 1 10 0;
#X connect 19 0 21 0;
#X connect 23 0 15 0;
#X restore 298 202 pd frequency;
#X obj 426 87 route getallvalues;
#N canvas 35 50 691 619 getallvalues 0;
#X obj 133 13 inlet;
#X obj 337 105 s \$0-WhereToSendVariables;
#X obj 239 84 s \$0-Variables;
#X obj 66 380 CopyList;
#N canvas 404 217 450 300 copy 0;
#X obj 61 35 inlet;
#X msg 61 57 JhonnySaid Ahoy BradSaid Hi LucySaid Ahoy DadSaid Hi;
#X obj 61 79 outlet;
#X connect 0 0 1 0;
#X connect 1 0 2 0;
#X restore 66 424 pd copy;
#X obj 186 284 until 666;
#X obj 186 247 trigger float bang;
#X obj 186 311 f 3;
#X floatatom 186 333 5 0 0 0 - - -, f 5;
#X obj 216 312 + 2;
#X floatatom 186 226 5 0 0 0 - - -, f 5;
#X obj 186 182 / 2;
#X text 219 182 Will only get variable names and skip values;
#X obj 186 354 trigger bang float;
#X obj 186 113 value \$0-Length;
#X floatatom 186 145 5 0 0 0 - - -, f 5;
#X symbolatom 216 485 30 0 0 0 - - -, f 30;
#X obj 133 43 trigger bang bang bang bang anything;
#X obj 512 96 list;
#X obj 512 118 list prepend symbol;
#X obj 512 140 list trim;
#X symbolatom 512 162 25 0 0 0 - - -, f 25;
#X obj 491 576 send;
#X msg 337 83 GetAllValues;
#X obj 66 328 r \$0-GetAllValues;
#X msg 291 288 2;
#N canvas 243 50 706 526 no-dummies 0;
#X obj 63 25 inlet;
#X obj 63 54 route dummyVar;
#X obj 63 96 route dummyValue;
#X obj 63 138 outlet;
#X connect 0 0 1 0;
#X connect 1 0 2 0;
#X connect 1 1 3 0;
#X connect 2 0 3 0;
#X restore 66 354 pd no-dummies;
#X obj 216 463 GetNthElement;
#X obj 417 83 cnv 10 10 17 empty empty empty 20 12 0 14 -51135 -66577
0;
#X obj 55 328 cnv 10 10 17 empty empty empty 20 12 0 14 -51135 -66577
0;
#X connect 0 0 17 0;
#X connect 3 0 4 0;
#X connect 4 0 27 0;
#X connect 5 0 7 0;
#X connect 6 0 5 0;
#X connect 6 1 25 0;
#X connect 7 0 8 0;
#X connect 7 0 9 0;
#X connect 8 0 13 0;
#X connect 9 0 7 1;
#X connect 10 0 6 0;
#X connect 11 0 10 0;
#X connect 13 0 4 0;
#X connect 13 1 27 1;
#X connect 14 0 15 0;
#X connect 15 0 11 0;
#X connect 16 0 22 0;
#X connect 17 1 14 0;
#X connect 17 2 2 0;
#X connect 17 3 23 0;
#X connect 17 4 18 0;
#X connect 18 0 19 0;
#X connect 19 0 20 0;
#X connect 20 0 21 0;
#X connect 21 0 22 1;
#X connect 23 0 1 0;
#X connect 24 0 26 0;
#X connect 25 0 7 1;
#X connect 26 0 3 0;
#X connect 27 0 16 0;
#X restore 426 112 pd getallvalues;
#X obj 1059 289 list trim;
#N canvas 165 136 428 369 sv_concatenate 0;
#X obj 36 16 inlet;
#X obj 36 38 list split 1;
#X obj 36 182 list trim;
#X symbolatom 36 204 10 0 0 0 - - -, f 10;
#X obj 36 160 list prepend symbol;
#X obj 331 93 concatenate;
#X obj 103 275 pack symbol symbol;
#X msg 103 297 \; SV_SymbolVariables setvar \$1 \$2;
#X symbolatom 208 130 30 0 0 0 - - -, f 30;
#X obj 208 64 trigger bang anything;
#X connect 0 0 1 0;
#X connect 1 0 4 0;
#X connect 1 1 9 0;
#X connect 2 0 3 0;
#X connect 3 0 6 0;
#X connect 4 0 2 0;
#X connect 5 0 8 0;
#X connect 6 0 7 0;
#X connect 8 0 6 1;
#X connect 9 0 8 0;
#X connect 9 1 5 0;
#X restore 44 201 pd sv_concatenate;
#X obj 166 175 route concatenateall;
#N canvas 92 58 575 596 concatenateall 0;
#X obj 86 26 inlet;
#X symbolatom 86 157 14 0 0 0 - - -, f 14;
#X obj 86 112 list prepend symbol;
#X obj 86 134 list trim;
#X obj 286 112 float \$0;
#X floatatom 286 134 5 0 0 0 - - -, f 5;
#X msg 286 164 \; SV_SymbolVariables getallvalues \$1-ConcAll;
#X obj 287 202 r \$0-ConcAll;
#X symbolatom 287 224 30 0 0 0 - - -, f 30;
#X msg 239 250 set;
#X msg 287 245 add2 \$1;
#X obj 86 178 trigger symbol bang;
#X obj 287 298 concatenate;
#X obj 287 320 trigger b a;
#X symbolatom 287 352 10 0 0 0 - - -, f 10;
#X obj 86 393 trigger bang anything;
#X msg 209 418 set setvar \$1 \$2;
#N canvas 0 50 1366 686 setvarmsg 0;
#X obj 51 31 inlet;
#X msg 51 53 setvar filename SynthLoopOne.pd;
#X obj 51 525 outlet;
#X connect 0 0 1 0;
#X connect 1 0 2 0;
#X restore 86 448 pd setvarmsg;
#X obj 86 550 s SV_SymbolVariables;
#N canvas 578 282 450 290 copy 0;
#X obj 37 37 inlet;
#X msg 37 59 Synth Loop One .pd;
#X obj 37 351 outlet;
#X connect 0 0 1 0;
#X connect 1 0 2 0;
#X restore 287 270 pd copy;
#X obj 86 371 pack symbol symbol;
#X obj 86 50 trigger anything bang bang bang;
#X obj 86 518 spigot;
#X obj 281 50 v \$0-Length;
#X floatatom 281 72 5 0 0 0 - - -, f 5;
#X obj 158 509 tgl 15 0 empty empty empty 17 7 0 10 -262144 -1 -1 0
10;
#X obj 271 89 cnv 10 10 17 empty empty empty 20 12 0 14 -147521 -66577
0;
#X obj 281 89 s \$0-ConcatenateAllSpigot;
#X obj 148 484 cnv 10 10 17 empty empty empty 20 12 0 14 -147521 -66577
0;
#X obj 158 484 r \$0-ConcatenateAllSpigot;
#X connect 0 0 21 0;
#X connect 1 0 11 0;
#X connect 2 0 3 0;
#X connect 3 0 1 0;
#X connect 4 0 5 0;
#X connect 5 0 6 0;
#X connect 7 0 8 0;
#X connect 8 0 10 0;
#X connect 9 0 19 0;
#X connect 10 0 19 0;
#X connect 11 0 20 0;
#X connect 11 1 19 0;
#X connect 12 0 13 0;
#X connect 13 0 14 0;
#X connect 13 1 14 0;
#X connect 14 0 20 1;
#X connect 15 0 17 0;
#X connect 15 1 16 0;
#X connect 16 0 17 0;
#X connect 17 0 22 0;
#X connect 19 0 12 0;
#X connect 20 0 15 0;
#X connect 21 0 2 0;
#X connect 21 1 4 0;
#X connect 21 2 9 0;
#X connect 21 3 23 0;
#X connect 22 0 18 0;
#X connect 23 0 24 0;
#X connect 24 0 27 0;
#X connect 25 0 22 1;
#X connect 29 0 25 0;
#X restore 166 202 pd concatenateall;
#X obj 614 175 route set;
#N canvas 483 50 596 458 set 0;
#X obj 35 23 inlet;
#X obj 35 275 list prepend set;
#X obj 35 347 send \$0-Variables;
#X obj 35 297 list trim;
#X obj 221 66 list length;
#X floatatom 221 88 5 0 0 0 - - -, f 5;
#X obj 221 109 mod 2;
#X floatatom 221 131 5 0 0 0 - - -, f 5;
#X obj 221 152 sel 1;
#X obj 35 45 trigger anything anything;
#X obj 35 181 spigot;
#X obj 68 157 tgl 15 0 empty empty empty 17 7 0 10 -262144 -1 -1 0
1;
#X obj 221 254 t b b;
#X obj 68 128 r \$0-set-error-check;
#X obj 248 302 s \$0-set-error-check;
#X msg 248 277 0;
#X msg 221 324 incorrect list size. See set-help-pd for more information.
;
#X obj 248 174 bng 15 250 50 0 empty empty empty 17 7 0 10 -262144
-1 -1;
#X obj 248 217 s \$0-set-error-check;
#X msg 248 194 1;
#X obj 221 347 print [Set method error];
#X obj 237 217 cnv 10 10 17 empty empty empty 20 12 0 14 -88065 -66577
0;
#X obj 57 128 cnv 10 10 17 empty empty empty 20 12 0 14 -88065 -66577
0;
#X connect 0 0 9 0;
#X connect 1 0 3 0;
#X connect 3 0 2 0;
#X connect 4 0 5 0;
#X connect 5 0 6 0;
#X connect 6 0 7 0;
#X connect 7 0 8 0;
#X connect 8 0 12 0;
#X connect 8 1 17 0;
#X connect 9 0 10 0;
#X connect 9 1 4 0;
#X connect 10 0 1 0;
#X connect 11 0 10 1;
#X connect 12 0 16 0;
#X connect 12 1 15 0;
#X connect 13 0 11 0;
#X connect 15 0 14 0;
#X connect 16 0 20 0;
#X connect 17 0 19 0;
#X connect 19 0 18 0;
#X restore 614 203 pd set;
#X obj 402 175 route copy;
#N canvas 172 55 417 311 copy_method 0;
#X obj 34 18 inlet;
#X obj 34 97 bng 15 250 50 0 empty empty empty 17 7 0 10 -262144 -1
-1;
#X obj 110 94 s \$0-WhereToSendVariables;
#X obj 34 120 s \$0-Variables;
#X msg 110 72 CopyMethod;
#X obj 153 133 r \$0-CopyMethod;
#N canvas 243 50 706 526 no-dummies 0;
#X obj 63 25 inlet;
#X obj 63 54 route dummyVar;
#X obj 63 96 route dummyValue;
#X obj 63 138 outlet;
#X connect 0 0 1 0;
#X connect 1 0 2 0;
#X connect 1 1 3 0;
#X connect 2 0 3 0;
#X restore 153 158 pd no-dummies;
#X obj 153 180 CopyList;
#X obj 274 72 list prepend symbol;
#X obj 274 94 list trim;
#X symbolatom 274 116 10 0 0 0 - - -, f 10;
#X obj 253 247 send;
#X obj 34 47 trigger bang bang anything;
#X connect 0 0 12 0;
#X connect 1 0 3 0;
#X connect 4 0 2 0;
#X connect 5 0 6 0;
#X connect 6 0 7 0;
#X connect 7 0 11 0;
#X connect 8 0 9 0;
#X connect 9 0 10 0;
#X connect 10 0 11 1;
#X connect 12 0 1 0;
#X connect 12 1 4 0;
#X connect 12 2 8 0;
#X restore 402 202 pd copy_method;
#X obj 509 175 route delete;
#N canvas 0 50 1366 686 delete 0;
#X obj 46 14 inlet;
#X obj 46 133 bng 15 250 50 0 empty empty empty 17 7 0 10 -262144 -1
-1;
#X obj 122 125 s \$0-WhereToSendVariables;
#X obj 46 36 symbolize;
#X symbolatom 46 58 10 0 0 0 - - -, f 10;
#X obj 46 156 s \$0-Variables;
#X floatatom 240 231 5 0 0 0 - - -, f 5;
#X obj 240 252 sel -1;
#X obj 240 304 symbol;
#X symbolatom 198 274 10 0 0 0 - - -, f 10;
#X floatatom 482 82 5 0 0 0 - - -, f 5;
#X obj 46 79 trigger bang bang anything;
#X obj 198 157 trigger symbol symbol;
#X obj 480 267 list split 0;
#X msg 122 104 deletecheck;
#X obj 240 181 r \$0-deletecheck;
#X obj 617 196 s \$0-WhereToSendVariables;
#X obj 480 235 r \$0-deletesplit;
#X msg 617 175 deletesplit;
#X obj 482 143 trigger bang float bang;
#X obj 482 171 bng 15 250 50 0 empty empty empty 17 7 0 10 -262144
-1 -1;
#X obj 482 194 s \$0-Variables;
#X obj 549 167 - 1;
#X obj 514 297 list split 2;
#X obj 480 328 list append;
#X obj 480 350 trigger bang anything;
#X obj 603 374 copylist;
#X obj 603 396 s \$0-Variables;
#X obj 721 249 list length;
#X floatatom 721 271 5 0 0 0 - - -, f 5;
#X obj 721 314 sel 1;
#X obj 721 292 == 0;
#X msg 721 336 clear;
#X obj 721 358 s SV_SymbolVariables;
#X obj 240 356 print There is no such variable;
#X text 520 81 including dummies;
#X obj 240 330 list trim;
#X text 778 332 be 0 otherwise it will not bang;
#X text 778 320 Variable list length shouldn't;
#N canvas 31 50 1366 686 Check4Variable 0;
#X obj 157 21 inlet;
#X text 199 19 Hot Inlet;
#X obj 620 398 inlet;
#X symbolatom 620 449 30 0 0 0 - - -, f 30;
#X obj 197 88 list length;
#X floatatom 197 110 5 0 0 0 - - -, f 5;
#X obj 237 231 until 666;
#X obj 237 303 f;
#X obj 237 325 t f f;
#X floatatom 264 349 5 0 0 0 - - -, f 5;
#X obj 157 43 list;
#X msg 405 457 adddollar \$1;
#X msg 405 489 symbol \$3;
#X msg 351 291 set symbol;
#X obj 405 535 select symbol;
#X symbolatom 405 511 10 0 0 0 - - -, f 10;
#X obj 405 557 bng 15 250 50 0 empty empty empty 17 7 0 10 -262144
-1 -1;
#X floatatom 405 598 5 0 0 0 - - -, f 5;
#X msg 308 232 1;
#X obj 237 262 t bang bang;
#X obj 708 41 copylist;
#X obj 788 69 bng 15 250 50 0 empty empty empty 17 7 0 10 -262144 -1
-1;
#X obj 284 466 list;
#X obj 264 376 trigger float bang float float;
#X obj 158 435 ==;
#X floatatom 107 399 5 0 0 0 - - -, f 5;
#X obj 158 457 sel 1;
#X obj 158 481 bng 15 250 50 0 empty empty empty 17 7 0 10 -262144
-1 -1;
#X floatatom 158 523 5 0 0 0 - - -, f 5;
#X obj 157 63 trigger anything anything anything bang;
#X msg 388 106 -1;
#X obj 158 553 outlet;
#X obj 346 514 bng 15 250 50 0 empty empty empty 17 7 0 10 -262144
-1 -1;
#X text 658 397 Cold Inlet 1 (Symbol);
#X obj 237 348 + 2;
#X obj 197 156 / 2;
#N canvas 356 181 450 300 copy 0;
#X obj 63 26 inlet;
#X msg 63 48 dummyVar dummyValue var2 malcoue;
#X obj 63 300 outlet;
#X connect 0 0 1 0;
#X connect 1 0 2 0;
#X restore 708 125 pd copy;
#X obj 197 131 t f f;
#X obj 226 156 - 1;
#X obj 197 181 trigger anything bang bang;
#X obj 777 43 cnv 10 10 17 empty empty empty 20 12 0 14 -51135 -66577
0;
#X obj 273 418 cnv 10 10 17 empty empty empty 20 12 0 14 -51135 -66577
0;
#X obj 273 444 cnv 10 10 17 empty empty empty 20 12 0 14 -88065 -66577
0;
#X obj 697 205 cnv 10 10 17 empty empty empty 20 12 0 14 -88065 -66577
0;
#X obj 375 244 cnv 10 10 17 empty empty empty 20 12 0 14 -147521 -66577
0;
#X obj 62 326 cnv 10 10 17 empty empty empty 20 12 0 14 -147521 -66577
0;
#X obj 96 376 cnv 10 10 17 empty empty empty 20 12 0 14 -99096 -66577
0;
#X obj 254 155 cnv 10 10 17 empty empty empty 20 12 0 14 -99096 -66577
0;
#X obj 394 576 cnv 10 10 17 empty empty empty 20 12 0 14 -91753 -66577
0;
#X obj 430 403 cnv 10 10 17 empty empty empty 20 12 0 14 -91753 -66577
0;
#X obj 394 619 cnv 10 10 17 empty empty empty 20 12 0 14 -728 -66577
0;
#X obj 147 501 cnv 10 10 17 empty empty empty 20 12 0 14 -728 -66577
0;
#X obj 377 128 cnv 10 10 17 empty empty empty 20 12 0 14 -728 -66577
0;
#X obj 788 43 r \$0-BangCopy3;
#X obj 708 205 s \$0-CopySend3;
#X obj 388 128 value \$0-FoundIndex3;
#X obj 265 155 value \$0-ElCheckLength3;
#X obj 386 244 s \$0-CheckForLastIndex3;
#X obj 73 326 r \$0-CheckForLastIndex3;
#X obj 107 377 value \$0-ElCheckLength3;
#X obj 441 403 value \$0-ElCheckIndex3;
#X obj 284 418 s \$0-BangCopy3;
#X obj 284 444 r \$0-CopySend3;
#X obj 158 501 value \$0-FoundIndex3;
#X obj 405 576 value \$0-ElCheckIndex3;
#X obj 405 619 value \$0-FoundIndex3;
#X connect 0 0 10 0;
#X connect 2 0 3 0;
#X connect 3 0 14 1;
#X connect 4 0 5 0;
#X connect 5 0 37 0;
#X connect 6 0 19 0;
#X connect 7 0 8 0;
#X connect 8 0 34 0;
#X connect 8 1 9 0;
#X connect 9 0 23 0;
#X connect 10 0 29 0;
#X connect 11 0 12 0;
#X connect 12 0 15 0;
#X connect 13 0 12 0;
#X connect 14 0 16 0;
#X connect 15 0 14 0;
#X connect 16 0 64 0;
#X connect 17 0 65 0;
#X connect 18 0 7 1;
#X connect 19 0 7 0;
#X connect 19 1 13 0;
#X connect 20 0 36 0;
#X connect 21 0 36 0;
#X connect 22 0 12 0;
#X connect 23 0 24 0;
#X connect 23 1 61 0;
#X connect 23 2 11 0;
#X connect 23 3 60 0;
#X connect 24 0 26 0;
#X connect 25 0 24 1;
#X connect 26 0 27 0;
#X connect 27 0 63 0;
#X connect 28 0 31 0;
#X connect 29 1 4 0;
#X connect 29 2 20 0;
#X connect 29 3 30 0;
#X connect 30 0 55 0;
#X connect 32 0 15 0;
#X connect 34 0 7 1;
#X connect 35 0 39 0;
#X connect 36 0 54 0;
#X connect 37 0 35 0;
#X connect 37 1 38 0;
#X connect 38 0 56 0;
#X connect 39 0 6 0;
#X connect 39 1 18 0;
#X connect 39 2 57 0;
#X connect 53 0 21 0;
#X connect 58 0 59 0;
#X connect 59 0 25 0;
#X connect 62 0 22 0;
#X connect 63 0 28 0;
#X connect 64 0 17 0;
#X restore 240 206 pd Check4Variable;
#X obj 111 104 cnv 10 10 17 empty empty empty 20 12 0 14 -88065 -66577
0;
#X obj 229 181 cnv 10 10 17 empty empty empty 20 12 0 14 -88065 -66577
0;
#X obj 469 235 cnv 10 10 17 empty empty empty 20 12 0 14 -147521 -66577
0;
#X obj 606 175 cnv 10 10 17 empty empty empty 20 12 0 14 -147521 -66577
0;
#X connect 0 0 3 0;
#X connect 1 0 5 0;
#X connect 3 0 4 0;
#X connect 4 0 11 0;
#X connect 6 0 7 0;
#X connect 7 0 8 0;
#X connect 7 1 10 0;
#X connect 8 0 36 0;
#X connect 9 0 8 1;
#X connect 10 0 19 0;
#X connect 11 0 1 0;
#X connect 11 1 14 0;
#X connect 11 2 12 0;
#X connect 12 0 9 0;
#X connect 12 1 39 1;
#X connect 13 0 24 0;
#X connect 13 1 23 0;
#X connect 14 0 2 0;
#X connect 15 0 39 0;
#X connect 17 0 13 0;
#X connect 18 0 16 0;
#X connect 19 0 20 0;
#X connect 19 1 22 0;
#X connect 19 2 18 0;
#X connect 20 0 21 0;
#X connect 22 0 13 1;
#X connect 23 1 24 1;
#X connect 24 0 25 0;
#X connect 25 1 26 0;
#X connect 25 1 28 0;
#X connect 26 0 27 0;
#X connect 28 0 29 0;
#X connect 29 0 31 0;
#X connect 30 0 32 0;
#X connect 31 0 30 0;
#X connect 32 0 33 0;
#X connect 36 0 34 0;
#X connect 39 0 6 0;
#X restore 509 202 pd delete;
#X obj 688 175 route varindex;
#N canvas 138 112 560 454 varindex 0;
#X obj 73 16 inlet;
#X obj 73 81 bng 15 250 50 0 empty empty empty 17 7 0 10 -262144 -1
-1;
#X obj 339 100 s \$0-WhereToSendVariables;
#X obj 73 104 s \$0-Variables;
#X msg 339 78 search4var;
#X obj 68 158 r \$0-search4var;
#X floatatom 68 224 5 0 0 0 - - -, f 5;
#X obj 149 77 unpack symbol symbol;
#X symbolatom 149 180 10 0 0 0 - - -, f 10;
#X symbolatom 266 99 10 0 0 0 - - -, f 10;
#X obj 245 406 send;
#X obj 73 38 trigger bang anything bang;
#X obj 68 245 sel -1;
#X obj 68 271 f -1;
#X obj 407 78 cnv 10 10 17 empty empty empty 20 12 0 14 -6441 -66577
0;
#X obj 57 158 cnv 10 10 17 empty empty empty 20 12 0 14 -6441 -66577
0;
#N canvas 1 50 1366 686 Check4Variable 0;
#X obj 157 21 inlet;
#X text 199 19 Hot Inlet;
#X obj 620 398 inlet;
#X symbolatom 620 449 30 0 0 0 - - -, f 30;
#X obj 197 88 list length;
#X floatatom 197 110 5 0 0 0 - - -, f 5;
#X obj 237 231 until 666;
#X obj 237 303 f;
#X obj 237 325 t f f;
#X floatatom 264 349 5 0 0 0 - - -, f 5;
#X obj 157 43 list;
#X msg 405 457 adddollar \$1;
#X msg 405 489 symbol \$1;
#X msg 351 291 set symbol;
#X obj 405 535 select symbol;
#X symbolatom 405 511 10 0 0 0 - - -, f 10;
#X obj 405 557 bng 15 250 50 0 empty empty empty 17 7 0 10 -262144
-1 -1;
#X floatatom 405 598 5 0 0 0 - - -, f 5;
#X msg 308 232 1;
#X obj 237 262 t bang bang;
#X obj 708 41 copylist;
#X obj 788 69 bng 15 250 50 0 empty empty empty 17 7 0 10 -262144 -1
-1;
#X obj 284 466 list;
#X obj 264 376 trigger float bang float float;
#X obj 158 435 ==;
#X floatatom 107 399 5 0 0 0 - - -, f 5;
#X obj 158 457 sel 1;
#X obj 158 481 bng 15 250 50 0 empty empty empty 17 7 0 10 -262144
-1 -1;
#X floatatom 158 523 5 0 0 0 - - -, f 5;
#X obj 157 63 trigger anything anything anything bang;
#X msg 388 106 -1;
#X obj 158 553 outlet;
#X obj 346 514 bng 15 250 50 0 empty empty empty 17 7 0 10 -262144
-1 -1;
#X text 658 397 Cold Inlet 1 (Symbol);
#X obj 237 348 + 2;
#X obj 197 156 / 2;
#N canvas 356 181 450 300 copy 0;
#X obj 63 26 inlet;
#X msg 63 48 var1 macareda;
#X obj 63 300 outlet;
#X connect 0 0 1 0;
#X connect 1 0 2 0;
#X restore 708 125 pd copy;
#X obj 197 131 t f f;
#X obj 226 156 - 1;
#X obj 197 181 trigger anything bang bang;
#X obj 777 43 cnv 10 10 17 empty empty empty 20 12 0 14 -51135 -66577
0;
#X obj 273 418 cnv 10 10 17 empty empty empty 20 12 0 14 -51135 -66577
0;
#X obj 273 444 cnv 10 10 17 empty empty empty 20 12 0 14 -88065 -66577
0;
#X obj 697 205 cnv 10 10 17 empty empty empty 20 12 0 14 -88065 -66577
0;
#X obj 375 244 cnv 10 10 17 empty empty empty 20 12 0 14 -147521 -66577
0;
#X obj 62 326 cnv 10 10 17 empty empty empty 20 12 0 14 -147521 -66577
0;
#X obj 96 376 cnv 10 10 17 empty empty empty 20 12 0 14 -99096 -66577
0;
#X obj 254 155 cnv 10 10 17 empty empty empty 20 12 0 14 -99096 -66577
0;
#X obj 394 576 cnv 10 10 17 empty empty empty 20 12 0 14 -91753 -66577
0;
#X obj 430 403 cnv 10 10 17 empty empty empty 20 12 0 14 -91753 -66577
0;
#X obj 394 619 cnv 10 10 17 empty empty empty 20 12 0 14 -728 -66577
0;
#X obj 147 501 cnv 10 10 17 empty empty empty 20 12 0 14 -728 -66577
0;
#X obj 377 128 cnv 10 10 17 empty empty empty 20 12 0 14 -728 -66577
0;
#X obj 788 43 r \$0-BangCopy4;
#X obj 708 205 s \$0-CopySend4;
#X obj 388 128 value \$0-FoundIndex4;
#X obj 386 244 s \$0-CheckForLastIndex4;
#X obj 265 155 value \$0-ElCheckLength4;
#X obj 73 326 r \$0-CheckForLastIndex4;
#X obj 107 377 value \$0-ElCheckLength4;
#X obj 441 403 value \$0-ElCheckIndex4;
#X obj 284 418 s \$0-BangCopy4;
#X obj 284 444 r \$0-CopySend4;
#X obj 158 501 value \$0-FoundIndex4;
#X obj 405 576 value \$0-ElCheckIndex4;
#X obj 405 619 value \$0-FoundIndex4;
#X connect 0 0 10 0;
#X connect 2 0 3 0;
#X connect 3 0 14 1;
#X connect 4 0 5 0;
#X connect 5 0 37 0;
#X connect 6 0 19 0;
#X connect 7 0 8 0;
#X connect 8 0 34 0;
#X connect 8 1 9 0;
#X connect 9 0 23 0;
#X connect 10 0 29 0;
#X connect 11 0 12 0;
#X connect 12 0 15 0;
#X connect 13 0 12 0;
#X connect 14 0 16 0;
#X connect 15 0 14 0;
#X connect 16 0 64 0;
#X connect 17 0 65 0;
#X connect 18 0 7 1;
#X connect 19 0 7 0;
#X connect 19 1 13 0;
#X connect 20 0 36 0;
#X connect 21 0 36 0;
#X connect 22 0 12 0;
#X connect 23 0 24 0;
#X connect 23 1 61 0;
#X connect 23 2 11 0;
#X connect 23 3 60 0;
#X connect 24 0 26 0;
#X connect 25 0 24 1;
#X connect 26 0 27 0;
#X connect 27 0 63 0;
#X connect 28 0 31 0;
#X connect 29 1 4 0;
#X connect 29 2 20 0;
#X connect 29 3 30 0;
#X connect 30 0 55 0;
#X connect 32 0 15 0;
#X connect 34 0 7 1;
#X connect 35 0 39 0;
#X connect 36 0 54 0;
#X connect 37 0 35 0;
#X connect 37 1 38 0;
#X connect 38 0 57 0;
#X connect 39 0 6 0;
#X connect 39 1 18 0;
#X connect 39 2 56 0;
#X connect 53 0 21 0;
#X connect 58 0 59 0;
#X connect 59 0 25 0;
#X connect 62 0 22 0;
#X connect 63 0 28 0;
#X connect 64 0 17 0;
#X restore 68 203 pd Check4Variable;
#X connect 0 0 11 0;
#X connect 1 0 3 0;
#X connect 4 0 2 0;
#X connect 5 0 16 0;
#X connect 6 0 12 0;
#X connect 7 0 8 0;
#X connect 7 1 9 0;
#X connect 8 0 16 1;
#X connect 9 0 10 1;
#X connect 11 0 1 0;
#X connect 11 1 7 0;
#X connect 11 2 4 0;
#X connect 12 0 13 0;
#X connect 12 1 10 0;
#X connect 13 0 10 0;
#X connect 16 0 6 0;
#X restore 688 203 pd varindex;
#X obj 788 175 route search;
#N canvas 16 50 1060 649 search 0;
#X symbolatom 178 211 10 0 0 0 - - -, f 10;
#X obj 117 302 s SV_SymbolVariables;
#X obj 117 250 f \$0;
#X msg 117 274 getallvalues \$1-search;
#X obj 56 22 inlet;
#X msg 373 144 add2 \$1;
#X msg 435 145 set;
#X msg 363 176 Ahoy Hi Ahoy Hi;
#X obj 117 228 bng 15 250 50 0 empty empty empty 17 7 0 10 -262144
-1 -1;
#X obj 534 73 f 0;
#X floatatom 534 95 5 0 0 0 - - -, f 5;
#X obj 574 72 + 1;
#X msg 549 48 1;
#X obj 381 46 trigger bang anything bang;
#X obj 326 100 t b b;
#X obj 377 217 value \$0-searchindex;
#X obj 534 118 value \$0-searchindex;
#X floatatom 377 239 5 0 0 0 - - -, f 5;
#X symbolatom 359 296 10 0 0 0 - - -, f 10;
#X obj 359 341 value \$0-searchindex;
#X floatatom 359 363 5 0 0 0 - - -, f 5;
#X msg 359 407 add2 \$1;
#X msg 359 439 0 2 6;
#X obj 359 317 select symbol;
#X obj 359 384 * 2;
#X symbolatom 458 296 10 0 0 0 - - -, f 10;
#X obj 56 44 trigger bang bang anything bang;
#X msg 430 387 set 0;
#X obj 359 461 trigger anything anything;
#X obj 506 487 list length;
#X floatatom 506 509 5 0 0 0 - - -, f 5;
#X obj 506 530 == 1;
#X obj 506 552 sel 1;
#X msg 575 592 -1;
#X obj 392 514 tgl 15 0 empty empty empty 17 7 0 10 -262144 -1 -1 0
1;
#X obj 359 535 spigot;
#X obj 506 574 t b b;
#X msg 430 513 0;
#X msg 220 512 1;
#X obj 359 557 list split 1;
#X obj 178 102 unpack symbol symbol;
#X symbolatom 221 146 10 0 0 0 - - -, f 10;
#X obj 795 199 CopyList;
#X symbolatom 913 201 10 0 0 0 - - -, f 10;
#X obj 795 256 send;
#X obj 359 274 GetNthElement;
#X obj 229 69 cnv 10 10 17 empty empty empty 20 12 0 14 -1983 -66577
0;
#X obj 239 69 s \$0-srch-init;
#X obj 211 176 cnv 10 10 17 empty empty empty 20 12 0 14 -147521 -66577
0;
#X obj 221 176 s \$0-srch-where2send;
#X obj 168 235 cnv 10 10 17 empty empty empty 20 12 0 14 -6441 -66577
0;
#X obj 178 235 s \$0-srchvalue;
#X obj 46 342 cnv 10 10 17 empty empty empty 20 12 0 14 -255367 -66577
0;
#X obj 56 342 s \$0-srch-last;
#X obj 245 408 cnv 10 10 17 empty empty empty 20 12 0 14 -255367 -66577
0;
#X obj 255 408 r \$0-srch-last;
#X obj 210 484 cnv 10 10 17 empty empty empty 20 12 0 14 -1983 -66577
0;
#X obj 220 484 r \$0-srch-init;
#X obj 539 19 cnv 10 10 17 empty empty empty 20 12 0 14 -1983 -66577
0;
#X obj 549 19 r \$0-srch-init;
#X obj 107 274 cnv 10 10 17 empty empty empty 20 12 0 14 -99096 -66577
0;
#X obj 371 19 cnv 10 10 17 empty empty empty 20 12 0 14 -99096 -66577
0;
#X obj 381 19 r \$0-search;
#X obj 420 365 cnv 10 10 17 empty empty empty 20 12 0 14 -1983 -66577
0;
#X obj 430 365 r \$0-srch-init;
#X obj 565 616 cnv 10 10 17 empty empty empty 20 12 0 14 -91753 -66577
0;
#X obj 575 616 s \$0-srch-output;
#X obj 785 178 cnv 10 10 17 empty empty empty 20 12 0 14 -91753 -66577
0;
#X obj 795 178 r \$0-srch-output;
#X obj 903 178 cnv 10 10 17 empty empty empty 20 12 0 14 -147521 -66577
0;
#X obj 913 178 r \$0-srch-where2send;
#X obj 210 539 cnv 10 10 17 empty empty empty 20 12 0 14 -88065 -66577
0;
#X obj 220 539 s \$0-srch-ifFound;
#X obj 382 490 cnv 10 10 17 empty empty empty 20 12 0 14 -88065 -66577
0;
#X obj 392 490 r \$0-srch-ifFound;
#X obj 359 588 cnv 10 10 17 empty empty empty 20 12 0 14 -91753 -66577
0;
#X obj 369 588 s \$0-srch-output;
#X obj 448 274 cnv 10 10 17 empty empty empty 20 12 0 14 -6441 -66577
0;
#X obj 458 274 r \$0-srchvalue;
#X obj 425 120 cnv 10 10 17 empty empty empty 20 12 0 14 -1983 -66577
0;
#X obj 435 120 r \$0-srch-init;
#X text 806 20 1 - \$0-srch-init \; 2 - \$0-srchvalue \; 3 - \$0-srch-last
\; 4 - \$0-srch-ifFound \; 5 - \$0-srch-where2send \; 6 - \$0-srch-output
;
#X text 495 386 it can't be blank.;
#X text 496 399 Or it wouldn't bang if not found.;
#X text 495 412 Zero here is just a dummy and wouldn't be used.;
#X connect 0 0 51 0;
#X connect 2 0 3 0;
#X connect 3 0 1 0;
#X connect 4 0 26 0;
#X connect 5 0 7 0;
#X connect 6 0 7 0;
#X connect 7 0 45 0;
#X connect 8 0 2 0;
#X connect 9 0 10 0;
#X connect 9 0 11 0;
#X connect 10 0 16 0;
#X connect 11 0 9 1;
#X connect 12 0 9 1;
#X connect 13 0 14 0;
#X connect 13 1 5 0;
#X connect 13 2 9 0;
#X connect 14 0 7 0;
#X connect 14 1 15 0;
#X connect 15 0 17 0;
#X connect 17 0 45 1;
#X connect 18 0 23 0;
#X connect 19 0 20 0;
#X connect 20 0 24 0;
#X connect 21 0 22 0;
#X connect 22 0 28 0;
#X connect 23 0 19 0;
#X connect 24 0 21 0;
#X connect 25 0 23 1;
#X connect 26 0 53 0;
#X connect 26 1 8 0;
#X connect 26 2 40 0;
#X connect 26 3 47 0;
#X connect 27 0 22 0;
#X connect 28 0 35 0;
#X connect 28 1 29 0;
#X connect 29 0 30 0;
#X connect 30 0 31 0;
#X connect 31 0 32 0;
#X connect 32 0 36 0;
#X connect 33 0 66 0;
#X connect 34 0 35 1;
#X connect 35 0 39 0;
#X connect 36 0 37 0;
#X connect 36 1 33 0;
#X connect 37 0 34 0;
#X connect 38 0 72 0;
#X connect 39 1 76 0;
#X connect 40 0 0 0;
#X connect 40 1 41 0;
#X connect 41 0 49 0;
#X connect 42 0 44 0;
#X connect 43 0 44 1;
#X connect 45 0 18 0;
#X connect 55 0 22 0;
#X connect 57 0 38 0;
#X connect 59 0 12 0;
#X connect 62 0 13 0;
#X connect 64 0 27 0;
#X connect 68 0 42 0;
#X connect 70 0 43 0;
#X connect 74 0 34 0;
#X connect 78 0 25 0;
#X connect 80 0 6 0;
#X restore 788 204 pd search;
#X obj 973 313 print [SymbolVariables error] - No Such Method;
#X obj 872 175 route compare;
#N canvas 85 50 817 647 compare 0;
#X obj 30 27 inlet;
#X obj 537 321 CopyList;
#N canvas 520 231 450 300 copy 0;
#X obj 66 13 inlet;
#X msg 66 35 uno uno uno;
#X obj 66 267 outlet;
#X connect 0 0 1 0;
#X connect 1 0 2 0;
#X restore 30 452 pd copy;
#X obj 30 480 GetNthElement;
#X obj 30 310 f 1;
#X msg 88 278 1;
#X obj 60 310 + 1;
#X floatatom 30 335 5 0 0 0 - - -, f 5;
#X obj 30 278 until 0;
#X obj 30 386 trigger bang float;
#X symbolatom 30 502 10 0 0 0 - - -, f 10;
#X obj 172 129 unpack s;
#X symbolatom 155 507 10 0 0 0 - - -, f 10;
#X obj 30 523 select symbol;
#X obj 105 552 bng 15 250 50 0 empty empty empty 17 7 0 10 -262144
-1 -1;
#X obj 105 572 symbol false;
#X symbolatom 371 347 10 0 0 0 - - -, f 10;
#X obj 308 381 symbol;
#X obj 243 72 symbol true;
#X obj 579 136 value \$0-compare-length;
#X obj 579 71 list length;
#X floatatom 579 93 5 0 0 0 - - -, f 5;
#X obj 30 208 trigger bang bang;
#X obj 30 247 value \$0-compare-length;
#X obj 30 356 t f f;
#X obj 308 324 == 1;
#X obj 579 114 t b f;
#X obj 308 346 sel 1;
#X symbolatom 308 403 10 0 0 0 - - -, f 10;
#X obj 308 474 send;
#X obj 537 241 list split 1;
#X obj 606 212 - 1;
#X symbolatom 571 267 10 0 0 0 - - -, f 10;
#X obj 579 158 t f f;
#X obj 30 49 trigger anything anything anything bang anything;
#X floatatom 687 244 5 0 0 0 - - -, f 5;
#X text 169 171 It compares everything with the first element. If everything
is equal the first element \, then every element is the same.;
#X obj 319 448 cnv 10 10 17 empty empty empty 20 12 0 14 -51135 -66577
0;
#X obj 329 448 r \$0-compare-destination;
#X obj 561 291 cnv 10 10 17 empty empty empty 20 12 0 14 -51135 -66577
0;
#X obj 571 291 s \$0-compare-destination;
#X obj 95 594 cnv 10 10 17 empty empty empty 20 12 0 14 -147521 -66577
0;
#X obj 105 594 s \$0-compare-result;
#X obj 361 324 cnv 10 10 17 empty empty empty 20 12 0 14 -147521 -66577
0;
#X obj 371 324 r \$0-compare-result;
#X obj 61 421 cnv 10 10 17 empty empty empty 20 12 0 14 -255367 -66577
0;
#X obj 71 421 r \$0-compare-copy;
#X obj 527 346 cnv 10 10 17 empty empty empty 20 12 0 14 -255367 -66577
0;
#X obj 537 346 s \$0-compare-copy;
#X obj 298 255 cnv 10 10 17 empty empty empty 20 12 0 14 -2269 -66577
0;
#X obj 308 255 r \$0-compare-last-bang;
#X obj 319 294 cnv 10 10 17 empty empty empty 20 12 0 14 -91753 -66577
0;
#X obj 329 294 r \$0-compare-last-bang-selector;
#X obj 569 184 cnv 10 10 17 empty empty empty 20 12 0 14 -91753 -66577
0;
#X obj 579 184 s \$0-compare-last-bang-selector;
#X obj 76 355 cnv 10 10 17 empty empty empty 20 12 0 14 -2269 -66577
0;
#X obj 86 355 s \$0-compare-last-bang;
#X obj 163 153 cnv 10 10 17 empty empty empty 20 12 0 14 -88065 -66577
0;
#X obj 173 153 s \$0-compare-first;
#X obj 233 97 cnv 10 10 17 empty empty empty 20 12 0 14 -147521 -66577
0;
#X obj 243 97 s \$0-compare-result;
#X obj 145 472 cnv 10 10 17 empty empty empty 20 12 0 14 -88065 -66577
0;
#X obj 155 472 r \$0-compare-first;
#X obj 568 136 cnv 10 10 17 empty empty empty 20 12 0 14 -98339 -66577
0;
#X obj 19 247 cnv 10 10 17 empty empty empty 20 12 0 14 -98339 -66577
0;
#X connect 0 0 34 0;
#X connect 1 0 48 0;
#X connect 2 0 3 0;
#X connect 3 0 10 0;
#X connect 4 0 6 0;
#X connect 4 0 7 0;
#X connect 5 0 4 1;
#X connect 6 0 4 1;
#X connect 7 0 24 0;
#X connect 8 0 4 0;
#X connect 9 0 2 0;
#X connect 9 1 3 1;
#X connect 10 0 13 0;
#X connect 11 0 58 0;
#X connect 12 0 13 1;
#X connect 13 1 14 0;
#X connect 14 0 15 0;
#X connect 15 0 42 0;
#X connect 16 0 17 1;
#X connect 17 0 28 0;
#X connect 18 0 60 0;
#X connect 19 0 33 0;
#X connect 20 0 21 0;
#X connect 21 0 26 0;
#X connect 22 0 23 0;
#X connect 22 1 5 0;
#X connect 23 0 8 0;
#X connect 24 0 56 0;
#X connect 24 1 9 0;
#X connect 25 0 27 0;
#X connect 26 0 19 0;
#X connect 26 1 19 0;
#X connect 27 0 17 0;
#X connect 28 0 29 0;
#X connect 30 0 1 0;
#X connect 30 1 32 0;
#X connect 31 0 30 1;
#X connect 31 0 35 0;
#X connect 32 0 40 0;
#X connect 33 0 54 0;
#X connect 33 1 31 0;
#X connect 34 0 22 0;
#X connect 34 1 30 0;
#X connect 34 2 11 0;
#X connect 34 3 18 0;
#X connect 34 4 20 0;
#X connect 38 0 29 1;
#X connect 44 0 16 0;
#X connect 46 0 2 0;
#X connect 50 0 25 0;
#X connect 52 0 25 1;
#X connect 62 0 12 0;
#X restore 872 204 pd compare;
#X obj 52 65 inlet;
#X text 77 326 Some ideas for the future.;
#X text 209 347 outputs 0/1 if variable exists/doesn't.;
#X obj 1059 244 list split 1;
#X symbolatom 1059 266 10 0 0 0 - - -, f 10;
#N canvas 494 141 450 391 getbyindex 0;
#N canvas 0 50 450 300 GetNthElement 0;
#X obj 114 31 inlet;
#X text 157 30 HotInlet;
#X obj 225 29 inlet;
#X text 266 27 Cold Inlet 1 (L2R);
#X obj 148 125 outlet;
#X floatatom 225 51 5 0 0 0 - - -, f 5;
#X obj 148 98 list split 1;
#X obj 225 72 - 1;
#X obj 114 73 list split 1;
#X connect 0 0 8 0;
#X connect 2 0 5 0;
#X connect 5 0 7 0;
#X connect 6 0 4 0;
#X connect 7 0 8 1;
#X connect 8 1 6 0;
#X restore 85 219 pd GetNthElement;
#X obj 85 14 inlet left;
#X obj 238 71 unpack float symbol;
#X symbolatom 349 103 10 0 0 0 - - -, f 10;
#X obj 328 315 send;
#X obj 95 150 r \$0-getbyindex;
#X obj 161 58 f \$0;
#X msg 161 94 copy \$1-getbyindex;
#X obj 161 116 s SV_SymbolVariables;
#N canvas 0 50 271 107 Copy 0;
#X obj 16 22 inlet;
#X msg 16 44 JhonnySaid Ahoy BradSaid Hi LucySaid Ahoy DadSaid Hi;
#X obj 16 66 outlet;
#X connect 0 0 1 0;
#X connect 1 0 2 0;
#X restore 85 182 pd Copy;
#X obj 85 36 trigger bang bang anything;
#X floatatom 178 197 5 0 0 0 - - -, f 5;
#X symbolatom 85 241 10 0 0 0 - - -, f 10;
#X connect 0 0 12 0;
#X connect 1 0 10 0;
#X connect 2 0 11 0;
#X connect 2 1 3 0;
#X connect 3 0 4 1;
#X connect 5 0 9 0;
#X connect 6 0 7 0;
#X connect 7 0 8 0;
#X connect 9 0 0 0;
#X connect 10 0 9 0;
#X connect 10 1 6 0;
#X connect 10 2 2 0;
#X connect 11 0 0 1;
#X connect 12 0 4 0;
#X restore 966 203 pd getbyindex;
#X obj 966 176 route getbyindex;
#X msg 78 372 SV_ length where;
#X msg 79 393 SV_ errors on/off;
#X obj 551 354 declare -path EasyFlow;
#X text 549 325 Declare here the path to EasyFlow Library.;
#X text 548 380 Look for SymbolVariables-help.pd for further information.
;
#X obj 839 460 cnv 3 400 15 empty empty Created 10 8 0 15 -1 -262144
0;
#X obj 911 456 cnv 3 1 1 empty empty by 3 12 0 15 -233017 -262144 0
;
#X obj 935 456 cnv 3 1 1 empty empty Henri 3 12 0 15 -233017 -262144
0;
#X obj 981 456 cnv 3 1 1 empty empty Augusto 3 12 0 15 -233017 -262144
0;
#X obj 1047 456 cnv 3 1 1 empty empty - 3 12 0 15 -233017 -262144 0
;
#X obj 1067 456 cnv 3 1 1 empty empty v0.8 3 12 0 15 -233017 -262144
0;
#X obj 1105 456 cnv 3 1 1 empty empty 11th 3 12 0 15 -233017 -262144
0;
#X obj 1143 456 cnv 3 1 1 empty empty July 3 12 0 15 -233017 -262144
0;
#X obj 1176 456 cnv 3 1 1 empty empty 2015 3 12 0 15 -233017 -262144
0;
#X text 837 486 henriaugusto.github.io;
#X connect 0 0 2 0;
#X connect 0 1 1 0;
#X connect 1 0 3 0;
#X connect 1 1 5 0;
#X connect 5 0 10 0;
#X connect 5 1 6 0;
#X connect 6 0 11 0;
#X connect 6 1 28 0;
#X connect 7 0 12 0;
#X connect 7 1 15 0;
#X connect 8 0 0 0;
#X connect 13 0 14 0;
#X connect 13 1 7 0;
#X connect 15 0 16 0;
#X connect 15 1 17 0;
#X connect 17 0 18 0;
#X connect 17 1 19 0;
#X connect 19 0 20 0;
#X connect 19 1 22 0;
#X connect 22 0 21 0;
#X connect 22 1 24 0;
#X connect 23 0 27 0;
#X connect 23 1 36 0;
#X connect 25 0 26 0;
#X connect 26 0 31 0;
#X connect 26 1 32 0;
#X connect 28 0 29 0;
#X connect 28 1 13 0;
#X connect 30 0 44 0;
#X connect 32 0 33 0;
#X connect 32 1 23 0;
#X connect 34 0 35 0;
#X connect 34 1 40 0;
#X connect 36 0 37 0;
#X connect 36 1 38 0;
#X connect 38 0 39 0;
#X connect 38 1 34 0;
#X connect 40 0 41 0;
#X connect 40 1 42 0;
#X connect 42 0 43 0;
#X connect 42 1 45 0;
#X connect 45 0 46 0;
#X connect 45 1 53 0;
#X connect 47 0 0 0;
#X connect 50 0 51 0;
#X connect 51 0 30 0;
#X connect 53 0 52 0;
#X connect 53 1 50 0;
