#N canvas 34 64 812 553 10;
#X obj 18 -128 inlet;
#X obj 141 -17 value \$0-state;
#X floatatom 141 5 5 0 0 0 - - -, f 5;
#X obj 141 26 == 1;
#X obj 141 48 sel 1;
#X obj 163 -47 r \$0-StartStop;
#X obj 89 -67 loadbang;
#X msg 89 -45 1;
#X obj 18 -100 trigger anything bang;
#X msg 180 106 0;
#X obj 180 132 s \$0-StartStop;
#X obj -32 311 spigot;
#X obj -32 361 outlet n1 (left to right);
#X obj 18 336 outlet n2 (l2r);
#X obj 1 287 tgl 15 0 empty empty empty 17 7 0 10 -262144 -1 -1 0 1
;
#X obj 18 311 spigot;
#X obj 51 287 tgl 15 0 empty empty empty 17 7 0 10 -262144 -1 -1 0
1;
#X obj 51 265 r \$0-rightOutlet;
#X obj 1 208 r \$0-leftOutlet;
#X msg 141 203 1;
#X obj 141 225 s \$0-leftOutlet;
#X obj 141 82 t b b b;
#X msg 160 156 0;
#X obj 310 132 s \$0-StartStop;
#X obj 271 225 s \$0-leftOutlet;
#X obj 271 82 t b b b;
#X msg 310 106 1;
#X msg 290 156 1;
#X msg 271 203 0;
#X obj 160 178 s \$0-rightOutlet;
#X obj 290 178 s \$0-rightOutlet;
#X text 358 -95 Alternate passes what it receives one time to it's
left inlet \, then to it's right inlet \, then to it's left inlet...
It works with "anything".;
#X text 358 -43 See Alternate-Help.pd for more information.;
#X text 371 317 This is part of EasyFlow library of abstractions.;
#X text 371 347 Created by Henri Augusto - v1.0 - 11 July 2015;
#X text 371 366 henriaugusto.github.io;
#X connect 0 0 8 0;
#X connect 1 0 2 0;
#X connect 2 0 3 0;
#X connect 3 0 4 0;
#X connect 4 0 21 0;
#X connect 4 1 25 0;
#X connect 5 0 1 0;
#X connect 6 0 7 0;
#X connect 7 0 1 0;
#X connect 8 0 11 0;
#X connect 8 0 15 0;
#X connect 8 1 1 0;
#X connect 9 0 10 0;
#X connect 11 0 12 0;
#X connect 14 0 11 1;
#X connect 15 0 13 0;
#X connect 16 0 15 1;
#X connect 17 0 16 0;
#X connect 18 0 14 0;
#X connect 19 0 20 0;
#X connect 21 0 19 0;
#X connect 21 1 22 0;
#X connect 21 2 9 0;
#X connect 22 0 29 0;
#X connect 25 0 28 0;
#X connect 25 1 27 0;
#X connect 25 2 26 0;
#X connect 26 0 23 0;
#X connect 27 0 30 0;
#X connect 28 0 24 0;
