#N canvas 127 14 881 613 10;
#X obj 107 -188 list;
#X msg 213 -142 set \$1;
#X obj 72 -135 list length;
#X floatatom 72 -113 5 0 0 0 - - -, f 5;
#X obj 72 -92 - 1;
#X msg 137 -28 2;
#X obj 72 -28 until 666;
#X obj 72 -6 f;
#X obj 72 16 t f f;
#X obj 72 38 + 1;
#X floatatom 99 39 5 0 0 0 - - -, f 5;
#N canvas 236 181 450 300 getNthElem 0;
#X obj 104 21 inlet;
#X text 147 20 HotInlet;
#X obj 215 19 inlet;
#X text 256 17 Cold Inlet 1 (L2R);
#X obj 101 161 outlet;
#X floatatom 215 41 5 0 0 0 - - -, f 5;
#X obj 104 63 list split 0;
#X obj 141 88 list split 1;
#X obj 215 62 - 1;
#X connect 0 0 6 0;
#X connect 2 0 5 0;
#X connect 5 0 8 0;
#X connect 6 1 7 0;
#X connect 7 0 4 0;
#X connect 8 0 6 1;
#X restore 99 122 pd getNthElem;
#X floatatom 174 77 5 0 0 0 - - -, f 5;
#X symbolatom 99 147 10 0 0 0 - - -, f 10;
#X obj 99 60 t b f;
#X obj 165 226 pack s s;
#X obj 99 169 trigger bang symbol;
#X msg 165 260 set \$1\$2;
#X obj 107 -216 inlet;
#X obj 213 -120 s \$0-intermezzo;
#X obj -1 147 r \$0-intermezzo;
#X obj 165 307 s \$0-intermezzo;
#X obj 160 -74 s \$0-copy;
#X obj 35 60 r \$0-copy;
#X obj 267 337 outlet;
#N canvas 82 159 450 300 copy 0;
#X obj 98 75 inlet;
#X msg 98 97 vou matar tua famíalia;
#X obj 98 119 outlet;
#X connect 0 0 1 0;
#X connect 1 0 2 0;
#X restore 99 97 pd copy;
#N canvas 76 50 450 300 copy2 0;
#X obj 121 73 inlet;
#X msg 121 95 voumatartuafamíalia;
#X obj 121 117 outlet;
#X connect 0 0 1 0;
#X connect 1 0 2 0;
#X restore 99 197 pd copy2;
#X msg 465 -191 symb1 symb2 symb3;
#X text 463 -156 Info \; You send an list like the one above through
the inlet and it outputs a symbol which is the concatenation of all
symbols. In this case it will output symb1symb2symb3. Note that it
outputs with a set message \, so Concatenate abstraction must be conected
to the input of a message box.;
#X text 464 -26 Important! The temporary lists used by this abstraction
are stored under "pd copy" and "pd copy2" \, in msg boxes. If you run
this with those subpatche's windows opened \, it will make glitches!
;
#X obj 300 266 tgl 15 0 empty empty empty 17 7 0 10 -262144 -1 -1 0
1;
#X obj 267 295 spigot;
#X obj 107 -166 trigger list list list bang;
#X obj 313 -94 s \$0-spigot;
#X msg 313 -119 0;
#X obj 310 238 r \$0-spigot;
#X obj 174 98 t f f;
#X obj 300 160 ==;
#X obj 72 -70 t f b f;
#X obj 315 125 r \$0-length;
#X obj 168 -28 s \$0-length;
#X obj 300 182 sel 1;
#X msg 300 209 1;
#X text 314 296 Only outputs in the last iteration;
#X text 488 -75 Use "trigger bang anything" to output it as soon as
it's;
#X text 464 -60 set.;
#N canvas 0 50 450 300 CopyList 0;
#X obj 108 19 inlet;
#X obj 138 113 list length;
#X floatatom 138 135 5 0 0 0 - - -, f 5;
#X obj 138 186 until 777;
#X obj 138 208 f;
#X obj 138 230 t f f;
#X obj 138 252 + 1;
#X floatatom 165 253 5 0 0 0 - - -, f 5;
#X msg 204 184 1;
#X msg 165 274 adddollar \$1;
#X msg 165 306 add2 \$1;
#X obj 128 410 outlet;
#X obj 108 41 list;
#X msg 306 184 set;
#X obj 138 156 trigger float bang bang bang;
#X msg 242 184 set add2;
#X obj 108 81 trigger anything anything;
#X connect 0 0 12 0;
#X connect 1 0 2 0;
#X connect 2 0 14 0;
#X connect 3 0 4 0;
#X connect 4 0 5 0;
#X connect 5 0 6 0;
#X connect 5 1 7 0;
#X connect 6 0 4 1;
#X connect 7 0 9 0;
#X connect 8 0 4 1;
#X connect 9 0 10 0;
#X connect 10 0 11 0;
#X connect 12 0 16 0;
#X connect 13 0 11 0;
#X connect 14 0 3 0;
#X connect 14 1 8 0;
#X connect 14 2 15 0;
#X connect 14 3 13 0;
#X connect 15 0 10 0;
#X connect 16 0 10 0;
#X connect 16 1 1 0;
#X restore 160 -99 pd CopyList;
#X connect 0 0 32 0;
#X connect 1 0 19 0;
#X connect 2 0 3 0;
#X connect 3 0 4 0;
#X connect 4 0 38 0;
#X connect 5 0 7 1;
#X connect 6 0 7 0;
#X connect 7 0 8 0;
#X connect 8 0 9 0;
#X connect 8 1 10 0;
#X connect 9 0 7 1;
#X connect 10 0 14 0;
#X connect 11 0 13 0;
#X connect 12 0 36 0;
#X connect 13 0 16 0;
#X connect 14 0 25 0;
#X connect 14 1 12 0;
#X connect 15 0 17 0;
#X connect 16 0 26 0;
#X connect 16 1 15 1;
#X connect 17 0 21 0;
#X connect 17 0 31 0;
#X connect 18 0 0 0;
#X connect 20 0 26 0;
#X connect 23 0 25 0;
#X connect 25 0 11 0;
#X connect 26 0 15 0;
#X connect 30 0 31 1;
#X connect 31 0 24 0;
#X connect 32 0 2 0;
#X connect 32 1 46 0;
#X connect 32 2 1 0;
#X connect 32 3 34 0;
#X connect 34 0 33 0;
#X connect 35 0 30 0;
#X connect 36 0 11 1;
#X connect 36 1 37 0;
#X connect 37 0 41 0;
#X connect 38 0 6 0;
#X connect 38 1 5 0;
#X connect 38 2 40 0;
#X connect 39 0 37 1;
#X connect 41 0 42 0;
#X connect 42 0 30 0;
#X connect 46 0 22 0;
