#N canvas 410 134 382 480 10;
#X obj 108 19 inlet;
#X obj 138 113 list length;
#X floatatom 138 135 5 0 0 0 - - -;
#X obj 138 186 until 777;
#X obj 138 208 f;
#X obj 138 230 t f f;
#X obj 138 252 + 1;
#X floatatom 165 253 5 0 0 0 - - -;
#X msg 204 184 1;
#X msg 165 274 adddollar \$1;
#X msg 165 306 add2 \$1;
#X obj 128 410 outlet;
#X obj 108 41 list;
#X msg 306 184 set;
#X obj 138 156 trigger float bang bang bang;
#X msg 242 184 set add2;
#X obj 108 81 trigger anything anything;
#X connect 0 0 12 0;
#X connect 1 0 2 0;
#X connect 2 0 14 0;
#X connect 3 0 4 0;
#X connect 4 0 5 0;
#X connect 5 0 6 0;
#X connect 5 1 7 0;
#X connect 6 0 4 1;
#X connect 7 0 9 0;
#X connect 8 0 4 1;
#X connect 9 0 10 0;
#X connect 10 0 11 0;
#X connect 12 0 16 0;
#X connect 13 0 11 0;
#X connect 14 0 3 0;
#X connect 14 1 8 0;
#X connect 14 2 15 0;
#X connect 14 3 13 0;
#X connect 15 0 10 0;
#X connect 16 0 10 0;
#X connect 16 1 1 0;
