#N canvas 0 50 497 300 10;
#X obj 26 18 inlet;
#X obj 26 90 until;
#X obj 26 123 f;
#X obj 26 40 trigger float bang;
#X obj 61 123 + 1;
#X obj 26 221 outlet leftmost = bang;
#X obj 26 145 trigger bang float;
#X obj 131 176 outlet rightmost = index;
#X msg 131 69 1;
#X text 181 37 This is part of EasyFlow library of abstractions.;
#X text 181 67 Created by Henri Augusto - v1.0 - 11 July 2015;
#X text 181 86 henriaugusto.github.io;
#X connect 0 0 3 0;
#X connect 1 0 2 0;
#X connect 2 0 4 0;
#X connect 2 0 6 0;
#X connect 3 0 1 0;
#X connect 3 1 8 0;
#X connect 4 0 2 1;
#X connect 6 0 5 0;
#X connect 6 1 7 0;
#X connect 8 0 2 1;
