#N canvas 130 21 855 572 10;
#X obj 132 47 trigger anything anything;
#X obj 216 416 list append;
#N canvas 0 50 450 300 GetElem 0;
#X obj 114 31 inlet;
#X text 157 30 HotInlet;
#X obj 225 29 inlet;
#X text 266 27 Cold Inlet 1 (L2R);
#X obj 148 125 outlet;
#X floatatom 225 51 5 0 0 0 - - -, f 5;
#X obj 148 98 list split 1;
#X obj 225 72 - 1;
#X obj 114 73 list split 1;
#X connect 0 0 8 0;
#X connect 2 0 5 0;
#X connect 5 0 7 0;
#X connect 6 0 4 0;
#X connect 7 0 8 1;
#X connect 8 1 6 0;
#X restore 250 491 pd GetElem;
#N canvas 0 50 450 300 for 0;
#X obj 76 28 inlet;
#X obj 76 100 until;
#X obj 76 133 f;
#X obj 76 50 trigger float bang;
#X obj 111 133 + 1;
#X obj 76 231 outlet leftmost = bang;
#X obj 76 155 trigger bang float;
#X obj 181 186 outlet rightmost = index;
#X msg 181 79 1;
#X connect 0 0 3 0;
#X connect 1 0 2 0;
#X connect 2 0 4 0;
#X connect 2 0 6 0;
#X connect 3 0 1 0;
#X connect 3 1 8 0;
#X connect 4 0 2 1;
#X connect 6 0 5 0;
#X connect 6 1 7 0;
#X connect 8 0 2 1;
#X restore 132 144 pd for;
#X obj 132 69 list length;
#X floatatom 132 91 5 0 0 0 - - -, f 5;
#X floatatom 165 168 5 0 0 0 - - -, f 5;
#X obj 165 357 trigger bang float;
#X msg 165 387 dummy;
#X floatatom 307 465 5 0 0 0 - - -, f 5;
#X obj 216 438 list split 1;
#X obj 250 513 outlet;
#X obj 132 110 trigger f f;
#X obj 131 271 expr $f2+1-$f1;
#X floatatom 131 293 5 0 0 0 - - -, f 5;
#X obj 132 25 inlet left;
#X obj 400 31 inlet right;
#X obj 164 221 tgl 15 0 empty empty empty 17 7 0 10 -262144 -1 -1 0
1;
#X obj 131 242 spigot;
#X obj 164 198 r \$0-r2l;
#X obj 231 221 tgl 15 0 empty empty empty 17 7 0 10 -262144 -1 -1 0
1;
#X obj 198 242 spigot;
#X obj 231 198 r \$0-l2r;
#X obj 439 130 s \$0-r2l;
#X obj 400 152 s \$0-l2r;
#X obj 400 63 sel l2r;
#X msg 400 108 1;
#X msg 439 108 0;
#X obj 505 63 sel r2l;
#X msg 505 108 1;
#X msg 544 108 0;
#X obj 544 130 s \$0-l2r;
#X obj 505 152 s \$0-r2l;
#X obj 400 85 t b b;
#X obj 505 85 t b b;
#X text 240 241 left 2 right;
#X text 47 243 right 2 left;
#X msg 615 108 1;
#X msg 654 108 0;
#X obj 654 130 s \$0-l2r;
#X obj 615 152 s \$0-r2l;
#X obj 615 85 t b b;
#X obj 615 63 sel 1;
#X text 396 281 Use the right inlet to control how the elements will
be output. Send to it the following;
#X text 395 266 This abstraction outputs elements of a list \, one
at a time.;
#X text 395 322 -> r2l or one: elements are output from right to left
;
#X text 395 342 -> l2r \, zero or anything you want: output from left
to right;
#X obj 779 130 s \$0-r2l;
#X obj 740 152 s \$0-l2r;
#X msg 740 108 1;
#X msg 779 108 0;
#X obj 740 85 t b b;
#X text 394 195 Thermopylae is the place where the Leonidas fought
his famous last battle.;
#X text 397 459 This is part of EasyFlow library of abstractions.;
#X text 397 489 Created by Henri Augusto - v1.0 - 11 July 2015;
#X text 397 508 henriaugusto.github.io;
#X connect 0 0 4 0;
#X connect 0 1 1 1;
#X connect 1 0 10 0;
#X connect 2 0 11 0;
#X connect 3 1 6 0;
#X connect 4 0 5 0;
#X connect 5 0 12 0;
#X connect 6 0 18 0;
#X connect 6 0 21 0;
#X connect 7 0 8 0;
#X connect 7 1 9 0;
#X connect 8 0 1 0;
#X connect 9 0 2 1;
#X connect 10 1 2 0;
#X connect 12 0 3 0;
#X connect 12 1 13 1;
#X connect 13 0 14 0;
#X connect 14 0 7 0;
#X connect 15 0 0 0;
#X connect 16 0 25 0;
#X connect 17 0 18 1;
#X connect 18 0 13 0;
#X connect 19 0 17 0;
#X connect 20 0 21 1;
#X connect 21 0 7 0;
#X connect 22 0 20 0;
#X connect 25 0 33 0;
#X connect 25 1 28 0;
#X connect 26 0 24 0;
#X connect 27 0 23 0;
#X connect 28 0 34 0;
#X connect 28 1 42 0;
#X connect 29 0 32 0;
#X connect 30 0 31 0;
#X connect 33 0 26 0;
#X connect 33 1 27 0;
#X connect 34 0 29 0;
#X connect 34 1 30 0;
#X connect 37 0 40 0;
#X connect 38 0 39 0;
#X connect 41 0 37 0;
#X connect 41 1 38 0;
#X connect 42 0 41 0;
#X connect 42 1 51 0;
#X connect 49 0 48 0;
#X connect 50 0 47 0;
#X connect 51 0 49 0;
#X connect 51 1 50 0;
