#N canvas 0 50 450 300 10;
#X obj 124 41 inlet;
#X text 167 40 HotInlet;
#X obj 235 39 inlet;
#X text 276 37 Cold Inlet 1 (L2R);
#X obj 158 135 outlet;
#X floatatom 235 61 5 0 0 0 - - -, f 5;
#X obj 124 83 list split 0;
#X obj 235 82 - 1;
#X obj 158 108 list split 2;
#X text 91 178 This is part of EasyFlow library of abstractions.;
#X text 91 208 Created by Henri Augusto - v1.0 - 11 July 2015;
#X text 91 227 henriaugusto.github.io;
#X connect 0 0 6 0;
#X connect 2 0 5 0;
#X connect 5 0 7 0;
#X connect 6 1 8 0;
#X connect 7 0 6 1;
#X connect 8 0 4 0;
