#N canvas 331 154 700 491 10;
#X obj 211 339 CopyList;
#N canvas 675 316 450 300 copyofthemotherfuckinglist 0;
#X obj 27 7 inlet;
#X msg 27 29 a b c d;
#X obj 27 51 outlet;
#X connect 0 0 1 0;
#X connect 1 0 2 0;
#X restore 88 378 pd copyofthemotherfuckinglist;
#X obj 88 402 outlet;
#X obj 88 289 trigger bang anything;
#X obj 121 94 tgl 15 0 empty empty empty 17 7 0 10 -262144 -1 -1 0
1;
#X msg 192 22 0;
#X obj 88 125 spigot;
#X obj 157 94 symbol wat;
#X obj 88 47 trigger anything anything bang bang;
#X msg 295 71 symbol wat;
#X symbolatom 157 120 10 0 0 0 - - -, f 10;
#X obj 157 145 sel wat;
#X msg 196 177 1;
#X text 226 119 Detects if the incoming was bang or list \; if bang
\, symbol will be "wat" \; if some kind of list \, symbol will be "list"
;
#X text 314 365 This is part of EasyFlow library of abstractions.;
#X text 314 395 Created by Henri Augusto - v1.0 - 11 July 2015;
#X text 314 414 henriaugusto.github.io;
#X obj 88 22 inlet hotinlet;
#X obj 258 269 inlet coldinlet;
#X text 375 204 This abstraction stores a list exactly how a;
#X obj 381 230 float;
#X text 423 231 would store a float.;
#X connect 0 0 1 0;
#X connect 1 0 2 0;
#X connect 3 0 1 0;
#X connect 3 1 0 0;
#X connect 4 0 6 1;
#X connect 5 0 4 0;
#X connect 6 0 3 0;
#X connect 7 0 10 0;
#X connect 8 0 6 0;
#X connect 8 1 7 0;
#X connect 8 2 5 0;
#X connect 8 3 9 0;
#X connect 9 0 7 1;
#X connect 10 0 11 0;
#X connect 11 0 1 0;
#X connect 11 1 12 0;
#X connect 12 0 4 0;
#X connect 17 0 8 0;
#X connect 18 0 0 0;
