#N canvas 338 117 387 336 10;
#X obj 147 227 outlet;
#X obj 77 25 inlet left;
#X obj 142 75 inlet right;
#X obj 79 101 list append;
#X msg 79 77 dummy;
#X obj 79 123 list split 1;
#X obj 77 49 trigger bang float;
#X text 149 25 takes a int;
#X text 217 74 takes a list;
#X obj 182 123 - 1;
#X obj 147 199 list split 1;
#X obj 113 168 list split 0;
#X text 52 248 This is part of EasyFlow library of abstractions.;
#X text 52 278 Created by Henri Augusto - v1.0 - 11 July 2015;
#X text 52 297 henriaugusto.github.io;
#X connect 1 0 6 0;
#X connect 2 0 3 1;
#X connect 3 0 5 0;
#X connect 4 0 3 0;
#X connect 5 1 11 0;
#X connect 6 0 4 0;
#X connect 6 1 9 0;
#X connect 9 0 11 1;
#X connect 10 0 0 0;
#X connect 11 1 10 0;
