#N canvas 105 97 633 361 10;
#X obj 35 26 inlet left;
#X obj 147 26 inlet right;
#X obj 237 27 loadbang;
#X obj 35 98 list split;
#X obj 35 185 list split;
#X obj 92 140 - 1;
#X floatatom 92 162 5 0 0 0 - - -, f 5;
#X obj 35 225 list append;
#X obj 207 301 print Can not pop that element.;
#X msg 270 146 doesnt have a \$1-th element;
#X obj 207 188 list append;
#X floatatom 147 76 5 0 0 0 - - -, f 5;
#X obj 35 247 outlet;
#X text 310 37 This is part of EasyFlow library of abstractions.;
#X text 310 67 Created by Henri Augusto - v1.0 - 11 July 2015;
#X text 310 86 henriaugusto.github.io;
#X msg 237 49 1;
#X connect 0 0 3 0;
#X connect 1 0 11 0;
#X connect 2 0 16 0;
#X connect 3 0 4 0;
#X connect 3 1 7 1;
#X connect 3 2 10 0;
#X connect 4 0 7 0;
#X connect 5 0 6 0;
#X connect 6 0 4 1;
#X connect 7 0 12 0;
#X connect 9 0 10 1;
#X connect 10 0 8 0;
#X connect 11 0 9 0;
#X connect 11 0 5 0;
#X connect 11 0 3 1;
#X connect 16 0 11 0;
