#N canvas 207 14 423 651 10;
#X obj 80 26 inlet;
#X obj 80 48 trigger anything anything;
#X obj 164 347 list append;
#N canvas 0 50 450 300 GetElem 0;
#X obj 114 31 inlet;
#X text 157 30 HotInlet;
#X obj 225 29 inlet;
#X text 266 27 Cold Inlet 1 (L2R);
#X obj 148 125 outlet;
#X floatatom 225 51 5 0 0 0 - - -, f 5;
#X obj 148 98 list split 1;
#X obj 225 72 - 1;
#X obj 114 73 list split 1;
#X connect 0 0 8 0;
#X connect 2 0 5 0;
#X connect 5 0 7 0;
#X connect 6 0 4 0;
#X connect 7 0 8 1;
#X connect 8 1 6 0;
#X restore 198 422 pd GetElem;
#N canvas 0 50 450 300 for 0;
#X obj 76 28 inlet;
#X obj 76 100 until;
#X obj 76 133 f;
#X obj 76 50 trigger float bang;
#X obj 111 133 + 1;
#X obj 76 231 outlet leftmost = bang;
#X obj 76 155 trigger bang float;
#X obj 181 186 outlet rightmost = index;
#X msg 181 79 1;
#X connect 0 0 3 0;
#X connect 1 0 2 0;
#X connect 2 0 4 0;
#X connect 2 0 6 0;
#X connect 3 0 1 0;
#X connect 3 1 8 0;
#X connect 4 0 2 1;
#X connect 6 0 5 0;
#X connect 6 1 7 0;
#X connect 8 0 2 1;
#X restore 80 145 pd for;
#X obj 80 70 list length;
#X floatatom 80 92 5 0 0 0 - - -, f 5;
#X floatatom 113 169 5 0 0 0 - - -, f 5;
#X obj 113 288 trigger bang float;
#X msg 113 318 dummy;
#X floatatom 255 396 5 0 0 0 - - -, f 5;
#X obj 164 369 list split 1;
#X obj 198 444 outlet;
#X obj 80 111 trigger f f;
#X obj 79 202 expr $f2+1-$f1;
#X floatatom 79 224 5 0 0 0 - - -, f 5;
#X text 41 541 This is part of EasyFlow library of abstractions.;
#X text 41 571 Created by Henri Augusto - v1.0 - 11 July 2015;
#X text 41 590 henriaugusto.github.io;
#X text 38 473 This abstraction takes a list and outputs it's elements
;
#X text 39 488 one at a time. Left To Right Order.;
#X connect 0 0 1 0;
#X connect 1 0 5 0;
#X connect 1 1 2 1;
#X connect 2 0 11 0;
#X connect 3 0 12 0;
#X connect 4 1 7 0;
#X connect 5 0 6 0;
#X connect 6 0 13 0;
#X connect 7 0 14 0;
#X connect 8 0 9 0;
#X connect 8 1 10 0;
#X connect 9 0 2 0;
#X connect 10 0 3 1;
#X connect 11 1 3 0;
#X connect 13 0 4 0;
#X connect 13 1 14 1;
#X connect 14 0 15 0;
#X connect 15 0 8 0;
