#N canvas 350 50 749 496 10;
#X obj 351 423 outlet;
#X symbolatom 375 184 10 0 0 0 - - -, f 10;
#X obj 249 168 ListPick;
#X obj 208 133 For;
#X obj 208 90 list length;
#X floatatom 208 112 5 0 0 0 - - -, f 5;
#X symbolatom 249 190 10 0 0 0 - - -, f 10;
#X obj 123 42 inlet left list;
#X obj 375 162 inlet right symbol;
#X msg 351 377 v1 v2 v3 v4 crazy love v1v2 v v3 v3 baila en tu corpo
alergia macarena;
#X msg 294 280 set, f 4;
#X obj 393 213 loadbang;
#X msg 393 237 symbol ShadySands;
#X obj 282 236 route somesymbol;
#X obj 249 207 list trim;
#X obj 375 263 list prepend symbol;
#X msg 351 305 add2 \$2;
#X obj 123 64 trigger bang anything anthing bang;
#X obj 123 90 s \$0-Output;
#X obj 239 323 r \$0-Output;
#X text 31 389 This is part of EasyFlow library of abstractions.;
#X text 31 419 Created by Henri Augusto - v1.0 - 11 July 2015;
#X text 31 438 henriaugusto.github.io;
#X text 367 38 This abstraction searchs a list for a specific value
and outputs the list without any element that matches that value.;
#X connect 1 0 13 1;
#X connect 2 0 6 0;
#X connect 3 1 2 0;
#X connect 4 0 5 0;
#X connect 5 0 3 0;
#X connect 6 0 14 0;
#X connect 7 0 17 0;
#X connect 8 0 1 0;
#X connect 9 0 0 0;
#X connect 10 0 9 0;
#X connect 11 0 12 0;
#X connect 12 0 13 1;
#X connect 13 1 15 0;
#X connect 14 0 13 0;
#X connect 15 0 16 0;
#X connect 16 0 9 0;
#X connect 17 0 18 0;
#X connect 17 1 4 0;
#X connect 17 2 2 1;
#X connect 17 3 10 0;
#X connect 19 0 9 0;
