#N canvas 272 70 497 300 10;
#X obj 65 56 inlet;
#X obj 65 78 list prepend symbol;
#X obj 65 100 list trim;
#X obj 65 122 outlet;
#X msg 283 66 WaterChip;
#X obj 283 93 t a a;
#X obj 310 117 print before symbolize;
#N canvas 0 50 450 300 symbolize 0;
#X obj 111 49 inlet;
#X obj 111 71 list prepend symbol;
#X obj 111 93 list trim;
#X obj 111 115 outlet;
#X connect 0 0 1 0;
#X connect 1 0 2 0;
#X connect 2 0 3 0;
#X restore 283 141 pd symbolize;
#X obj 283 163 print after symbolize;
#X text 87 17 This is a very simple abstraction to turn words on msg
boxes into symbols.;
#X text 90 198 This is part of EasyFlow library of abstractions.;
#X text 90 228 Created by Henri Augusto - v1.0 - 11 July 2015;
#X text 90 247 henriaugusto.github.io;
#X connect 0 0 1 0;
#X connect 1 0 2 0;
#X connect 2 0 3 0;
#X connect 4 0 5 0;
#X connect 5 0 7 0;
#X connect 5 1 6 0;
#X connect 7 0 8 0;
